<svg width="117" height="89" viewBox="0 0 117 89" fill="none" xmlns="http://www.w3.org/2000/svg">
<path d="M50.8774 48.2427L47.5575 43.5C46.7242 37.1667 47.5575 19.8 57.5575 1C59.0576 1 75.5576 41.5 62.0576 75C60.5576 76.5 59.0576 74 58.0576 73.5C57.0576 73 71.0574 59 57.5575 9C54.6608 19.1387 49.4332 40.6522 50.8774 48.2427Z" fill="#809C8B"/>
<path d="M51.0575 48.5L50.8774 48.2427M51.0576 49C50.9888 48.766 50.9289 48.5132 50.8774 48.2427M50.8774 48.2427L47.5575 43.5C46.7242 37.1667 47.5575 19.8 57.5575 1C59.0576 1 75.5576 41.5 62.0576 75C60.5576 76.5 59.0576 74 58.0576 73.5C57.0576 73 71.0574 59 57.5575 9C54.6608 19.1387 49.4332 40.6522 50.8774 48.2427Z" stroke="#809C8B" stroke-linejoin="bevel"/>
<path d="M34.0834 62.5369L28.4731 61.109C23.7092 56.8533 13.0094 43.149 8.3208 22.3775C9.45759 21.3987 48.3868 41.3239 60.0145 75.5189C59.8565 77.6343 57.0886 76.7185 56.0046 76.9921C54.9205 77.2657 56.3949 57.5218 13.5406 28.4399C17.9608 38.0131 28.0364 57.7271 34.0834 62.5369Z" fill="#809C8B"/>
<path d="M34.3878 62.6144L34.0834 62.5369M34.7142 62.9932C34.5093 62.8608 34.2989 62.7083 34.0834 62.5369M34.0834 62.5369L28.4731 61.109C23.7092 56.8533 13.0094 43.149 8.3208 22.3775C9.45759 21.3987 48.3868 41.3239 60.0145 75.5189C59.8565 77.6343 57.0886 76.7185 56.0046 76.9921C54.9205 77.2657 56.3949 57.5218 13.5406 28.4399C17.9608 38.0131 28.0364 57.7271 34.0834 62.5369Z" stroke="#809C8B" stroke-linejoin="bevel"/>
<path d="M69.2663 53.7512L69.9211 47.9992C73.4923 42.7027 85.621 30.2452 105.566 22.7862C106.69 23.78 92.2212 65.0494 59.9164 81.2017C57.7991 81.3317 58.3315 78.4653 57.9136 77.4283C57.4957 76.3913 77.2574 75.1777 100.266 28.7791C91.3802 34.4553 73.2127 47.1083 69.2663 53.7512Z" fill="#809C8B"/>
<path d="M69.2308 54.0633L69.2663 53.7512M68.8996 54.4379C69.0031 54.217 69.1257 53.9879 69.2663 53.7512M69.2663 53.7512L69.9211 47.9992C73.4923 42.7027 85.621 30.2452 105.566 22.7862C106.69 23.78 92.2212 65.0494 59.9164 81.2017C57.7991 81.3317 58.3315 78.4653 57.9136 77.4283C57.4957 76.3913 77.2574 75.1777 100.266 28.7791C91.3802 34.4553 73.2127 47.1083 69.2663 53.7512Z" stroke="#809C8B" stroke-linejoin="bevel"/>
<path d="M37.4427 81.9536L33.2272 83.9191C28.1529 83.6439 14.7192 80.3773 1.57915 69.5125C1.81039 68.3041 35.9815 61.0652 60.0617 76.9462C61.0019 78.3787 58.8183 79.2133 58.2737 79.9442C57.7291 80.675 48.9541 67.3055 7.8266 70.708C15.2977 74.5566 31.2924 81.9826 37.4427 81.9536Z" fill="#809C8B"/>
<path d="M37.6714 81.8469L37.4427 81.9536M38.0619 81.9215C37.8685 81.942 37.6618 81.9525 37.4427 81.9536M37.4427 81.9536L33.2272 83.9191C28.1529 83.6439 14.7192 80.3773 1.57915 69.5125C1.81039 68.3041 35.9815 61.0652 60.0617 76.9462C61.0019 78.3787 58.8183 79.2133 58.2737 79.9442C57.7291 80.675 48.9541 67.3055 7.8266 70.708C15.2977 74.5566 31.2924 81.9826 37.4427 81.9536Z" stroke="#809C8B" stroke-linejoin="bevel"/>
<path d="M78.9848 70.4249L82.2355 67.3333C86.9829 65.9819 100.353 64.6819 115.853 70.293C116.022 71.4502 86.9255 88.7096 59.7927 82.0431C58.4767 81.0538 60.2185 79.6169 60.4878 78.7896C60.7571 77.9622 73.0398 87.1958 109.738 71.1879C101.66 70.0876 84.6243 68.4616 78.9848 70.4249Z" fill="#809C8B"/>
<path d="M78.8085 70.5927L78.9848 70.4249M78.4263 70.6487C78.5974 70.5694 78.7839 70.4949 78.9848 70.4249M78.9848 70.4249L82.2355 67.3333C86.9829 65.9819 100.353 64.6819 115.853 70.293C116.022 71.4502 86.9255 88.7096 59.7927 82.0431C58.4767 81.0538 60.2185 79.6169 60.4878 78.7896C60.7571 77.9622 73.0398 87.1958 109.738 71.1879C101.66 70.0876 84.6243 68.4616 78.9848 70.4249Z" stroke="#809C8B" stroke-linejoin="bevel"/>
</svg>
