<svg width="162" height="43" viewBox="0 0 162 43" fill="none" xmlns="http://www.w3.org/2000/svg">
<path d="M30.4218 2C30.4858 2 30.5284 2.02133 30.5498 2.064C30.5711 2.08533 30.5818 2.128 30.5818 2.192C30.5818 2.512 30.3684 2.81067 29.9418 3.088L29.6218 3.28L29.5578 3.376C29.0031 4.4 28.5978 5.22133 28.3418 5.84C28.0858 6.43733 27.8618 7.14133 27.6698 7.952C27.4991 8.76267 27.2858 9.98933 27.0298 11.632L24.6938 26.704C24.6724 26.832 24.6618 27.0027 24.6618 27.216C24.6618 27.7067 24.8111 27.952 25.1098 27.952C25.4298 27.952 25.7818 27.6747 26.1658 27.12C26.5711 26.5653 26.9444 25.8933 27.2858 25.104C27.4138 24.8693 27.5311 24.752 27.6378 24.752C27.7018 24.752 27.7658 24.7947 27.8298 24.88C27.8938 24.9653 27.9258 25.104 27.9258 25.296C27.9258 25.4453 27.9151 25.5627 27.8938 25.648C27.7658 26.352 27.4458 27.0667 26.9338 27.792C26.4431 28.5173 25.8778 29.1253 25.2378 29.616C24.6191 30.0853 24.0858 30.32 23.6378 30.32C23.2324 30.32 22.9444 30.128 22.7738 29.744C22.6031 29.3387 22.5178 28.8373 22.5178 28.24C22.5178 27.8347 22.5604 27.3547 22.6458 26.8L24.5338 14.192C24.5551 14.0427 24.7898 12.5707 25.2378 9.776C25.6858 6.98133 26.6564 4.85867 28.1498 3.408C26.4431 3.408 25.0458 3.58933 23.9578 3.952C22.8911 4.29333 22.0378 4.85867 21.3978 5.648C20.7791 6.416 20.2884 7.42933 19.9258 8.688C19.5844 9.94667 19.2218 11.7493 18.8378 14.096L18.6778 15.088H20.4058C20.9818 15.088 21.4191 15.024 21.7178 14.896C22.0378 14.7467 22.2298 14.672 22.2938 14.672C22.4218 14.672 22.4858 14.768 22.4858 14.96C22.4858 15.152 22.4324 15.3333 22.3258 15.504C22.0698 15.952 21.7284 16.3147 21.3018 16.592C20.8751 16.848 20.3738 16.976 19.7978 16.976H18.4218L16.2458 31.76C15.1364 39.0987 12.4484 42.768 8.18175 42.768C7.88308 42.768 7.63775 42.7253 7.44575 42.64C7.23242 42.576 7.00842 42.4267 6.77375 42.192C6.36842 41.7867 6.16575 41.456 6.16575 41.2C6.16575 41.0933 6.25108 41.04 6.42175 41.04C6.65642 41.04 6.91242 41.072 7.18975 41.136C7.78708 41.2853 8.42708 41.36 9.10975 41.36C10.0271 41.36 10.7737 41.104 11.3498 40.592C11.9258 40.1013 12.3951 39.3013 12.7578 38.192C13.1418 37.104 13.4831 35.6 13.7818 33.68C13.8244 33.4453 14.0271 32.0693 14.3898 29.552C15.1578 24.0693 15.7871 19.8773 16.2778 16.976H14.5818C14.0058 16.976 13.5684 17.0507 13.2698 17.2C12.9924 17.328 12.8218 17.392 12.7578 17.392C12.6084 17.392 12.5338 17.296 12.5338 17.104C12.5338 16.9333 12.5978 16.752 12.7258 16.56C12.9391 16.1333 13.2591 15.7813 13.6858 15.504C14.1338 15.2267 14.6458 15.088 15.2218 15.088H16.5658L16.5978 14.736C17.1524 11.856 17.6751 9.66933 18.1658 8.176C18.6778 6.66133 19.4138 5.456 20.3738 4.56C21.3764 3.64267 22.5391 3.04533 23.8618 2.768C25.1844 2.49067 26.6778 2.33067 28.3418 2.288L29.1098 2.256C29.6431 2.23467 29.9738 2.192 30.1018 2.128C30.2511 2.04266 30.3578 2 30.4218 2ZM33.3653 30.32C32.4693 30.32 31.7866 29.9787 31.3173 29.296C30.8693 28.592 30.6453 27.6213 30.6453 26.384C30.6453 24.656 31.0613 22.8853 31.8932 21.072C32.7253 19.2587 33.7493 17.7547 34.9653 16.56C36.2026 15.3653 37.3759 14.768 38.4853 14.768C39.3173 14.768 39.9573 15.1413 40.4053 15.888C40.8533 16.6133 41.0773 17.5733 41.0773 18.768C41.0773 20.368 40.6826 22.0747 39.8933 23.888C39.1253 25.7013 38.1439 27.2267 36.9493 28.464C35.7546 29.7013 34.5599 30.32 33.3653 30.32ZM34.9333 28.208C35.6373 28.208 36.2773 27.856 36.8533 27.152C37.4293 26.4267 37.8879 25.4773 38.2292 24.304C38.5706 23.1093 38.7413 21.8507 38.7413 20.528C38.7413 18.096 38.1119 16.88 36.8533 16.88C36.0639 16.88 35.3706 17.3067 34.7733 18.16C34.1973 19.0133 33.7493 20.0587 33.4293 21.296C33.1306 22.512 32.9813 23.6533 32.9813 24.72C32.9813 25.744 33.1306 26.5867 33.4293 27.248C33.7493 27.888 34.2506 28.208 34.9333 28.208ZM43.9595 30.32C43.8742 30.32 43.7995 30.2987 43.7355 30.256C43.6928 30.2347 43.6715 30.2027 43.6715 30.16C43.6715 30.096 43.7355 29.9573 43.8635 29.744C43.9915 29.5307 44.0875 29.232 44.1515 28.848C44.2368 28.4 44.3115 27.9947 44.3755 27.632C44.4395 27.248 44.5035 26.896 44.5675 26.576C45.1008 23.6533 45.4528 21.616 45.6235 20.464C45.8155 19.2907 45.9008 18.4373 45.8795 17.904C45.8795 17.6267 45.8582 17.424 45.8155 17.296C45.7728 17.168 45.6768 17.104 45.5275 17.104C45.3355 17.104 45.0902 17.264 44.7915 17.584C44.4928 17.904 44.2155 18.2773 43.9595 18.704C43.8528 18.896 43.7568 19.0667 43.6715 19.216C43.5862 19.344 43.5115 19.44 43.4475 19.504C43.4048 19.568 43.3515 19.6 43.2875 19.6C43.2022 19.6 43.1382 19.568 43.0955 19.504C43.0528 19.44 43.0315 19.3547 43.0315 19.248C43.0315 18.8427 43.2555 18.2773 43.7035 17.552C44.1728 16.8267 44.7168 16.1867 45.3355 15.632C45.9755 15.056 46.5408 14.768 47.0315 14.768C47.4368 14.768 47.7142 14.928 47.8635 15.248C48.0342 15.568 48.1195 16.0693 48.1195 16.752C48.1195 17.6907 47.9168 18.96 47.5115 20.56H47.5755C49.6022 16.6987 51.4795 14.768 53.2075 14.768C53.6555 14.768 53.9968 14.896 54.2315 15.152C54.4875 15.3867 54.6155 15.728 54.6155 16.176C54.6155 16.6453 54.5088 17.1253 54.2955 17.616C54.1035 18.1067 53.8582 18.512 53.5595 18.832C53.2822 19.152 53.0262 19.312 52.7915 19.312C52.6422 19.312 52.5888 19.216 52.6315 19.024C52.6955 18.7253 52.7275 18.4907 52.7275 18.32C52.7275 17.808 52.4502 17.552 51.8955 17.552C51.2342 17.552 50.5728 17.936 49.9115 18.704C49.2502 19.472 48.6635 20.4107 48.1515 21.52C47.6608 22.6293 47.3195 23.6427 47.1275 24.56C46.8715 25.5413 46.7115 26.5653 46.6475 27.632C46.6048 28.0373 46.4128 28.4533 46.0715 28.88C45.7515 29.2853 45.3782 29.6267 44.9515 29.904C44.5248 30.1813 44.1942 30.32 43.9595 30.32ZM57.375 30.32C56.415 30.32 55.647 29.9573 55.071 29.232C54.5163 28.4853 54.239 27.4613 54.239 26.16C54.239 24.5813 54.6123 22.896 55.359 21.104C56.127 19.2907 57.1083 17.7867 58.303 16.592C59.4977 15.376 60.703 14.768 61.919 14.768C63.0283 14.768 63.583 15.44 63.583 16.784C63.583 17.872 63.263 18.9387 62.623 19.984C61.983 21.0293 61.119 21.9573 60.031 22.768C58.9643 23.5573 57.791 24.1653 56.511 24.592C56.511 25.744 56.6923 26.576 57.055 27.088C57.439 27.6 57.9937 27.856 58.719 27.856C59.487 27.856 60.191 27.6107 60.831 27.12C61.471 26.6293 62.015 25.9573 62.463 25.104C62.527 24.976 62.591 24.8693 62.655 24.784C62.719 24.6987 62.8043 24.656 62.911 24.656C63.0817 24.656 63.167 24.784 63.167 25.04C63.167 25.616 62.879 26.3307 62.303 27.184C61.727 28.0373 60.991 28.7733 60.095 29.392C59.199 30.0107 58.2923 30.32 57.375 30.32ZM57.535 22.896C58.0897 22.896 58.6763 22.704 59.295 22.32C59.935 21.9147 60.4683 21.3707 60.895 20.688C61.3217 20.0053 61.535 19.2373 61.535 18.384C61.535 17.3813 61.183 16.88 60.479 16.88C59.903 16.88 59.3483 17.1893 58.815 17.808C58.303 18.4267 57.8657 19.1947 57.503 20.112C57.1617 21.0293 56.927 21.9147 56.799 22.768C56.927 22.8533 57.1723 22.896 57.535 22.896ZM68.9495 30.32C68.3095 30.32 67.8615 30.1067 67.6055 29.68C67.3495 29.232 67.2215 28.6347 67.2215 27.888C67.2215 27.3333 67.2642 26.7467 67.3495 26.128C67.4562 25.488 67.5202 25.104 67.5415 24.976L68.8535 16.752H65.6215C65.5148 16.752 65.4615 16.6987 65.4615 16.592C65.4615 16.3787 65.6962 16.08 66.1655 15.696C66.6348 15.2907 66.9762 15.088 67.1895 15.088H69.1095L69.4295 13.104C69.5148 12.4 69.8455 11.7707 70.4215 11.216C70.9975 10.6613 71.5735 10.384 72.1495 10.384C72.2562 10.384 72.3095 10.4373 72.3095 10.544C72.3095 10.6293 72.2135 10.8853 72.0215 11.312C71.8295 11.7173 71.6908 12.1547 71.6055 12.624L71.2215 15.088H74.3575C74.4855 15.088 74.5495 15.152 74.5495 15.28C74.5495 15.4507 74.2935 15.7387 73.7815 16.144C73.2908 16.5493 72.9708 16.752 72.8215 16.752H71.0295L69.7175 24.912C69.6962 25.0613 69.6322 25.424 69.5255 26C69.4402 26.576 69.3975 27.024 69.3975 27.344C69.3975 28.048 69.6322 28.4 70.1015 28.4C70.4428 28.4 70.8055 28.24 71.1895 27.92C71.5735 27.5787 71.9148 27.1093 72.2135 26.512C72.2348 26.4693 72.2562 26.4267 72.2775 26.384C72.3202 26.3413 72.3628 26.32 72.4055 26.32C72.5122 26.32 72.5655 26.4587 72.5655 26.736C72.5655 27.1627 72.3735 27.664 71.9895 28.24C71.6268 28.816 71.1575 29.3067 70.5815 29.712C70.0268 30.1173 69.4828 30.32 68.9495 30.32ZM78.1868 30.32C77.2908 30.32 76.8428 29.648 76.8428 28.304C76.8428 27.6427 76.9494 26.704 77.1628 25.488L78.2508 18.896C78.3361 18.128 78.3788 17.6907 78.3788 17.584C78.3788 17.264 78.2934 17.104 78.1228 17.104C77.6321 17.104 77.0561 17.744 76.3948 19.024C76.3521 19.1093 76.2774 19.2587 76.1708 19.472C76.0854 19.664 76.0108 19.792 75.9468 19.856C75.8828 19.8987 75.8188 19.92 75.7548 19.92C75.7121 19.92 75.6694 19.888 75.6268 19.824C75.5841 19.7387 75.5628 19.6427 75.5628 19.536C75.5628 19.1093 75.7761 18.512 76.2028 17.744C76.6508 16.9547 77.1948 16.2613 77.8348 15.664C78.4748 15.0667 79.0828 14.768 79.6588 14.768C80.0001 14.768 80.2668 14.9173 80.4588 15.216C80.6721 15.4933 80.7788 15.8773 80.7788 16.368C80.7788 16.688 80.7574 16.9333 80.7148 17.104L79.2108 26.544C79.1681 26.8427 79.1468 27.0347 79.1468 27.12C79.1468 27.568 79.3174 27.792 79.6588 27.792C80.3628 27.792 81.1201 27.3227 81.9308 26.384C82.7628 25.424 83.4881 24.2827 84.1068 22.96C84.7468 21.6373 85.1628 20.4747 85.3548 19.472L85.8028 17.136C85.9734 16.368 86.3148 15.7813 86.8268 15.376C87.3601 14.9707 87.8508 14.768 88.2988 14.768C88.4694 14.768 88.5548 14.8213 88.5548 14.928C88.5548 14.992 88.5121 15.12 88.4268 15.312C88.3414 15.4827 88.2774 15.696 88.2348 15.952C87.9361 17.2747 87.3494 20.3467 86.4748 25.168L86.2828 26.192C86.1334 26.9387 86.0588 27.3973 86.0588 27.568C86.0588 27.8667 86.1548 28.016 86.3468 28.016C86.6881 28.016 87.0614 27.7493 87.4668 27.216C87.8934 26.6613 88.2348 26.064 88.4908 25.424C88.6188 25.1893 88.7254 25.072 88.8108 25.072C88.9388 25.072 89.0028 25.168 89.0028 25.36C89.0028 25.5947 88.9814 25.7973 88.9388 25.968C88.7894 26.736 88.4908 27.4507 88.0428 28.112C87.5948 28.7733 87.0934 29.3067 86.5388 29.712C85.9841 30.1173 85.4721 30.32 85.0028 30.32C84.1708 30.32 83.7761 29.6587 83.8188 28.336C83.8614 27.76 83.9894 26.9813 84.2028 26L84.4908 24.432H84.4588C83.3494 26.2027 82.2188 27.632 81.0668 28.72C79.9148 29.7867 78.9548 30.32 78.1868 30.32ZM92.0495 30.32C91.8575 30.32 91.7615 30.256 91.7615 30.128C91.7615 30.064 91.8042 29.9147 91.8895 29.68C91.9962 29.424 92.1348 28.8907 92.3055 28.08C92.5402 27.0773 92.7535 26 92.9455 24.848C93.1588 23.696 93.4575 21.8187 93.8415 19.216C93.9695 18.4053 94.0335 17.84 94.0335 17.52C94.0335 17.2427 93.9695 17.104 93.8415 17.104C93.6282 17.104 93.3935 17.2747 93.1375 17.616C92.8815 17.9573 92.5722 18.4267 92.2095 19.024C92.1028 19.216 92.0068 19.3867 91.9215 19.536C91.8362 19.664 91.7615 19.76 91.6975 19.824C91.6548 19.888 91.6015 19.92 91.5375 19.92C91.3668 19.92 91.2815 19.8027 91.2815 19.568C91.2815 19.1413 91.5162 18.544 91.9855 17.776C92.4548 16.9867 93.0095 16.2933 93.6495 15.696C94.2895 15.0773 94.8655 14.768 95.3775 14.768C95.7188 14.768 95.9642 14.928 96.1135 15.248C96.2628 15.5467 96.3375 15.9307 96.3375 16.4C96.3375 16.848 96.2308 17.7973 96.0175 19.248L95.8575 20.368H95.8895C96.9348 18.512 97.9482 17.1147 98.9295 16.176C99.9322 15.2373 100.882 14.768 101.778 14.768C102.204 14.768 102.514 14.9067 102.706 15.184C102.898 15.44 102.994 15.8773 102.994 16.496C102.994 17.0933 102.898 17.936 102.706 19.024L102.546 19.92H102.61C103.57 18.2347 104.53 16.9547 105.49 16.08C106.471 15.2053 107.346 14.768 108.114 14.768C109.01 14.768 109.458 15.408 109.458 16.688C109.458 17.136 109.362 17.9147 109.17 19.024L108.434 22.864C107.9 25.5733 107.634 27.1093 107.634 27.472C107.634 27.856 107.794 28.048 108.114 28.048C108.476 28.048 108.807 27.8133 109.106 27.344C109.404 26.8533 109.724 26.2133 110.066 25.424C110.151 25.1893 110.258 25.072 110.386 25.072C110.514 25.072 110.578 25.2 110.578 25.456C110.578 25.648 110.567 25.8187 110.546 25.968C110.396 26.736 110.087 27.4613 109.618 28.144C109.17 28.8053 108.658 29.3387 108.082 29.744C107.506 30.128 106.983 30.32 106.514 30.32C105.746 30.32 105.362 29.744 105.362 28.592C105.362 27.7173 105.628 26.0107 106.162 23.472C106.226 23.152 106.364 22.4053 106.578 21.232C106.812 20.0587 106.951 19.0773 106.994 18.288C106.994 17.9253 106.962 17.6587 106.898 17.488C106.834 17.3173 106.674 17.232 106.418 17.232C105.927 17.232 105.372 17.584 104.754 18.288C104.156 18.992 103.591 19.8773 103.058 20.944C102.524 22.0107 102.119 23.056 101.842 24.08L100.85 29.168C100.828 29.424 100.583 29.68 100.114 29.936C99.6655 30.192 99.3028 30.32 99.0255 30.32C98.7268 30.32 98.5775 30.192 98.5775 29.936C98.7695 29.104 99.1215 27.2907 99.6335 24.496C100.146 21.68 100.444 19.6107 100.53 18.288V17.968C100.53 17.7333 100.498 17.552 100.434 17.424C100.37 17.296 100.231 17.232 100.018 17.232C99.4415 17.232 98.7908 17.68 98.0655 18.576C97.3615 19.4507 96.7215 20.528 96.1455 21.808C95.5908 23.0667 95.2282 24.208 95.0575 25.232L94.5455 28.016C94.4175 28.5707 94.0762 29.0933 93.5215 29.584C92.9668 30.0747 92.4762 30.32 92.0495 30.32Z" fill="url(#paint0_linear_9_45)"/>
<path d="M134.508 20.043L133.17 18.1313C132.834 15.5784 133.17 8.57806 137.201 1C137.805 1 144.456 17.3251 139.015 30.8285C138.41 31.4332 137.805 30.4255 137.402 30.2239C136.999 30.0224 142.642 24.3791 137.201 4.22471C136.033 8.31149 133.926 16.9833 134.508 20.043Z" fill="#809C8B"/>
<path d="M134.581 20.1467L134.508 20.043M134.581 20.3482C134.553 20.2539 134.529 20.152 134.508 20.043M134.508 20.043L133.17 18.1313C132.834 15.5784 133.17 8.57806 137.201 1C137.805 1 144.456 17.3251 139.015 30.8285C138.41 31.4332 137.805 30.4255 137.402 30.2239C136.999 30.0224 142.642 24.3791 137.201 4.22471C136.033 8.31149 133.926 16.9833 134.508 20.043Z" stroke="#809C8B" stroke-linejoin="bevel"/>
<path d="M127.739 25.8048L125.477 25.2292C123.557 23.5138 119.244 17.9897 117.354 9.61696C117.812 9.22242 133.504 17.2541 138.191 31.0377C138.127 31.8904 137.012 31.5212 136.575 31.6315C136.138 31.7418 136.732 23.7832 119.458 12.0607C121.24 15.9195 125.301 23.866 127.739 25.8048Z" fill="#809C8B"/>
<path d="M127.861 25.836L127.739 25.8048M127.993 25.9887C127.91 25.9353 127.825 25.8739 127.739 25.8048M127.739 25.8048L125.477 25.2292C123.557 23.5138 119.244 17.9897 117.354 9.61696C117.812 9.22242 133.504 17.2541 138.191 31.0377C138.127 31.8904 137.012 31.5212 136.575 31.6315C136.138 31.7418 136.732 23.7832 119.458 12.0607C121.24 15.9195 125.301 23.866 127.739 25.8048Z" stroke="#809C8B" stroke-linejoin="bevel"/>
<path d="M141.92 22.2634L142.184 19.9448C143.624 17.8099 148.513 12.7884 156.552 9.78178C157.005 10.1823 151.173 26.8176 138.152 33.3284C137.298 33.3808 137.513 32.2254 137.344 31.8074C137.176 31.3894 145.142 30.9002 154.416 12.1975C150.834 14.4854 143.511 19.5857 141.92 22.2634Z" fill="#809C8B"/>
<path d="M141.906 22.3892L141.92 22.2634M141.773 22.5402C141.814 22.4512 141.864 22.3588 141.92 22.2634M141.92 22.2634L142.184 19.9448C143.624 17.8099 148.513 12.7884 156.552 9.78178C157.005 10.1823 151.173 26.8176 138.152 33.3284C137.298 33.3808 137.513 32.2254 137.344 31.8074C137.176 31.3894 145.142 30.9002 154.416 12.1975C150.834 14.4854 143.511 19.5857 141.92 22.2634Z" stroke="#809C8B" stroke-linejoin="bevel"/>
<path d="M129.093 33.6314L127.394 34.4237C125.348 34.3128 119.933 32.996 114.637 28.6166C114.73 28.1295 128.504 25.2116 138.21 31.613C138.589 32.1904 137.709 32.5269 137.489 32.8214C137.27 33.116 133.733 27.727 117.155 29.0985C120.166 30.6498 126.614 33.6431 129.093 33.6314Z" fill="#809C8B"/>
<path d="M129.185 33.5884L129.093 33.6314M129.342 33.6185C129.264 33.6268 129.181 33.631 129.093 33.6314M129.093 33.6314L127.394 34.4237C125.348 34.3128 119.933 32.996 114.637 28.6166C114.73 28.1295 128.504 25.2116 138.21 31.613C138.589 32.1904 137.709 32.5269 137.489 32.8214C137.27 33.116 133.733 27.727 117.155 29.0985C120.166 30.6498 126.614 33.6431 129.093 33.6314Z" stroke="#809C8B" stroke-linejoin="bevel"/>
<path d="M145.838 28.9844L147.148 27.7382C149.062 27.1934 154.451 26.6694 160.699 28.9312C160.767 29.3976 149.039 36.3547 138.102 33.6675C137.571 33.2687 138.273 32.6896 138.382 32.356C138.49 32.0225 143.441 35.7445 158.234 29.2919C154.978 28.8484 148.111 28.193 145.838 28.9844Z" fill="#809C8B"/>
<path d="M145.767 29.052L145.838 28.9844M145.613 29.0745C145.682 29.0426 145.757 29.0126 145.838 28.9844M145.838 28.9844L147.148 27.7382C149.062 27.1934 154.451 26.6694 160.699 28.9312C160.767 29.3976 149.039 36.3547 138.102 33.6675C137.571 33.2687 138.273 32.6896 138.382 32.356C138.49 32.0225 143.441 35.7445 158.234 29.2919C154.978 28.8484 148.111 28.193 145.838 28.9844Z" stroke="#809C8B" stroke-linejoin="bevel"/>
<defs>
<linearGradient id="paint0_linear_9_45" x1="127" y1="35" x2="6.76594e-06" y2="-1.5" gradientUnits="userSpaceOnUse">
<stop stop-color="#8FAE9B"/>
<stop offset="1" stop-color="#3B4840"/>
</linearGradient>
</defs>
</svg>
