<svg width="124" height="64" viewBox="0 0 124 64" fill="none" xmlns="http://www.w3.org/2000/svg">
<path d="M57.4782 33.7982L55.1631 30.491C54.582 26.0746 55.1631 13.9643 62.1364 0.854572C63.1825 0.854572 74.6884 29.0963 65.2745 52.4568C64.2285 53.5028 63.1825 51.7594 62.4851 51.4108C61.7878 51.0621 71.5503 41.2995 62.1364 6.43319C60.1164 13.5032 56.4711 28.5051 57.4782 33.7982Z" fill="#D7EADF"/>
<path d="M57.6038 33.9776L57.4782 33.7982M57.6039 34.3263C57.5559 34.1631 57.5141 33.9868 57.4782 33.7982M57.4782 33.7982L55.1631 30.491C54.582 26.0746 55.1631 13.9643 62.1364 0.854572C63.1825 0.854572 74.6884 29.0963 65.2745 52.4568C64.2285 53.5028 63.1825 51.7594 62.4851 51.4108C61.7878 51.0621 71.5503 41.2995 62.1364 6.43319C60.1164 13.5032 56.4711 28.5051 57.4782 33.7982Z" stroke="#D7EADF" stroke-linejoin="bevel"/>
<path d="M45.7673 43.7659L41.8551 42.7702C38.5331 39.8026 31.0718 30.2462 27.8023 15.7617C28.595 15.0791 55.7414 28.9735 63.8497 52.8186C63.7396 54.2938 61.8094 53.6551 61.0535 53.8459C60.2976 54.0367 61.3257 40.2688 31.4423 19.9892C34.5245 26.6648 41.5505 40.4119 45.7673 43.7659Z" fill="#D7EADF"/>
<path d="M45.9796 43.8199L45.7673 43.7659M46.2071 44.0841C46.0643 43.9918 45.9176 43.8854 45.7673 43.7659M45.7673 43.7659L41.8551 42.7702C38.5331 39.8026 31.0718 30.2462 27.8023 15.7617C28.595 15.0791 55.7414 28.9735 63.8497 52.8186C63.7396 54.2938 61.8094 53.6551 61.0535 53.8459C60.2976 54.0367 61.3257 40.2688 31.4423 19.9892C34.5245 26.6648 41.5505 40.4119 45.7673 43.7659Z" stroke="#D7EADF" stroke-linejoin="bevel"/>
<path d="M70.3013 37.6394L70.7579 33.6284C73.2482 29.935 81.7058 21.248 95.614 16.0467C96.3976 16.7397 86.3084 45.5179 63.7814 56.7814C62.3049 56.8721 62.6762 54.8732 62.3848 54.1501C62.0933 53.427 75.8737 52.5807 91.9185 20.2257C85.7219 24.1838 73.0532 33.0072 70.3013 37.6394Z" fill="#D7EADF"/>
<path d="M70.2765 37.857L70.3013 37.6394M70.0456 38.1183C70.1177 37.9642 70.2032 37.8045 70.3013 37.6394M70.3013 37.6394L70.7579 33.6284C73.2482 29.935 81.7058 21.248 95.614 16.0467C96.3976 16.7397 86.3084 45.5179 63.7814 56.7814C62.3049 56.8721 62.6762 54.8732 62.3848 54.1501C62.0933 53.427 75.8737 52.5807 91.9185 20.2257C85.7219 24.1838 73.0532 33.0072 70.3013 37.6394Z" stroke="#D7EADF" stroke-linejoin="bevel"/>
<path d="M48.1098 57.3057L45.1702 58.6763C41.6318 58.4844 32.2641 56.2065 23.1012 48.6302C23.2624 47.7875 47.0909 42.7397 63.8827 53.8139C64.5383 54.8128 63.0156 55.3949 62.6358 55.9045C62.2561 56.4141 56.137 47.0912 27.4577 49.4638C32.6675 52.1475 43.821 57.3259 48.1098 57.3057Z" fill="#D7EADF"/>
<path d="M48.2693 57.2313L48.1098 57.3057M48.5416 57.2834C48.4067 57.2976 48.2626 57.305 48.1098 57.3057M48.1098 57.3057L45.1702 58.6763C41.6317 58.4844 32.2641 56.2065 23.1012 48.6302C23.2624 47.7875 47.0909 42.7397 63.8827 53.8139C64.5383 54.8128 63.0156 55.3949 62.6358 55.9045C62.2561 56.4141 56.137 47.0912 27.4577 49.4638C32.6675 52.1475 43.821 57.3259 48.1098 57.3057Z" stroke="#D7EADF" stroke-linejoin="bevel"/>
<path d="M77.0783 49.2664L79.3451 47.1106C82.6555 46.1682 91.9787 45.2617 102.788 49.1744C102.906 49.9814 82.6155 62.0169 63.6951 57.3681C62.7774 56.6782 63.992 55.6763 64.1798 55.0993C64.3676 54.5224 72.9326 60.9612 98.523 49.7985C92.8904 49.0312 81.0108 47.8974 77.0783 49.2664Z" fill="#D7EADF"/>
<path d="M76.9553 49.3834L77.0783 49.2664M76.6888 49.4225C76.8081 49.3672 76.9381 49.3152 77.0783 49.2664M77.0783 49.2664L79.3451 47.1106C82.6555 46.1682 91.9787 45.2617 102.788 49.1744C102.906 49.9814 82.6155 62.0169 63.6951 57.3681C62.7774 56.6782 63.992 55.6763 64.1798 55.0993C64.3676 54.5224 72.9326 60.9612 98.523 49.7985C92.8904 49.0312 81.0108 47.8974 77.0783 49.2664Z" stroke="#D7EADF" stroke-linejoin="bevel"/>
<path d="M27.537 17.3546C27.609 17.3546 27.657 17.3786 27.681 17.4266C27.705 17.4506 27.717 17.4986 27.717 17.5706C27.717 17.9306 27.477 18.2666 26.997 18.5786L26.637 18.7946L26.565 18.9026C25.941 20.0546 25.485 20.9786 25.197 21.6746C24.909 22.3466 24.657 23.1386 24.441 24.0506C24.249 24.9626 24.009 26.3426 23.721 28.1906L21.093 45.1466C21.069 45.2906 21.057 45.4826 21.057 45.7226C21.057 46.2746 21.225 46.5506 21.561 46.5506C21.921 46.5506 22.317 46.2386 22.749 45.6146C23.205 44.9906 23.625 44.2346 24.009 43.3466C24.153 43.0826 24.285 42.9506 24.405 42.9506C24.477 42.9506 24.549 42.9986 24.621 43.0946C24.693 43.1906 24.729 43.3466 24.729 43.5626C24.729 43.7306 24.717 43.8626 24.693 43.9586C24.549 44.7506 24.189 45.5546 23.613 46.3706C23.061 47.1866 22.425 47.8706 21.705 48.4226C21.009 48.9506 20.409 49.2146 19.905 49.2146C19.449 49.2146 19.125 48.9986 18.933 48.5666C18.741 48.1106 18.645 47.5466 18.645 46.8746C18.645 46.4186 18.693 45.8786 18.789 45.2546L20.913 31.0706C20.937 30.9026 21.201 29.2466 21.705 26.1026C22.209 22.9586 23.301 20.5706 24.981 18.9386C23.061 18.9386 21.489 19.1426 20.265 19.5506C19.065 19.9346 18.105 20.5706 17.385 21.4586C16.689 22.3226 16.137 23.4626 15.729 24.8786C15.345 26.2946 14.937 28.3226 14.505 30.9626L14.325 32.0786H16.269C16.917 32.0786 17.409 32.0066 17.745 31.8626C18.105 31.6946 18.321 31.6106 18.393 31.6106C18.537 31.6106 18.609 31.7186 18.609 31.9346C18.609 32.1506 18.549 32.3546 18.429 32.5466C18.141 33.0506 17.757 33.4586 17.277 33.7706C16.797 34.0586 16.233 34.2026 15.585 34.2026H14.037L11.589 50.8346C10.341 59.0906 7.31697 63.2186 2.51697 63.2186C2.18097 63.2186 1.90497 63.1706 1.68897 63.0746C1.44897 63.0026 1.19697 62.8346 0.932969 62.5706C0.476968 62.1146 0.248968 61.7426 0.248968 61.4546C0.248968 61.3346 0.344968 61.2746 0.536968 61.2746C0.800968 61.2746 1.08897 61.3106 1.40097 61.3826C2.07297 61.5506 2.79297 61.6346 3.56097 61.6346C4.59297 61.6346 5.43297 61.3466 6.08097 60.7706C6.72897 60.2186 7.25697 59.3186 7.66497 58.0706C8.09697 56.8466 8.48097 55.1546 8.81697 52.9946C8.86497 52.7306 9.09297 51.1826 9.50097 48.3506C10.365 42.1826 11.073 37.4666 11.625 34.2026H9.71697C9.06897 34.2026 8.57697 34.2866 8.24097 34.4546C7.92897 34.5986 7.73697 34.6706 7.66497 34.6706C7.49697 34.6706 7.41297 34.5626 7.41297 34.3466C7.41297 34.1546 7.48497 33.9506 7.62897 33.7346C7.86897 33.2546 8.22897 32.8586 8.70897 32.5466C9.21297 32.2346 9.78897 32.0786 10.437 32.0786H11.949L11.985 31.6826C12.609 28.4426 13.197 25.9826 13.749 24.3026C14.325 22.5986 15.153 21.2426 16.233 20.2346C17.361 19.2026 18.669 18.5306 20.157 18.2186C21.645 17.9066 23.325 17.7266 25.197 17.6786L26.061 17.6426C26.661 17.6186 27.033 17.5706 27.177 17.4986C27.345 17.4026 27.465 17.3546 27.537 17.3546ZM30.8484 49.2146C29.8404 49.2146 29.0724 48.8306 28.5444 48.0626C28.0404 47.2706 27.7884 46.1786 27.7884 44.7866C27.7884 42.8426 28.2564 40.8506 29.1924 38.8106C30.1284 36.7706 31.2804 35.0786 32.6484 33.7346C34.0404 32.3906 35.3604 31.7186 36.6084 31.7186C37.5444 31.7186 38.2644 32.1386 38.7684 32.9786C39.2724 33.7946 39.5244 34.8746 39.5244 36.2186C39.5244 38.0186 39.0804 39.9386 38.1924 41.9786C37.3284 44.0186 36.2244 45.7346 34.8804 47.1266C33.5364 48.5186 32.1924 49.2146 30.8484 49.2146ZM32.6124 46.8386C33.4044 46.8386 34.1244 46.4426 34.7724 45.6506C35.4204 44.8346 35.9364 43.7666 36.3204 42.4466C36.7044 41.1026 36.8964 39.6866 36.8964 38.1986C36.8964 35.4626 36.1884 34.0946 34.7724 34.0946C33.8844 34.0946 33.1044 34.5746 32.4324 35.5346C31.7844 36.4946 31.2804 37.6706 30.9204 39.0626C30.5844 40.4306 30.4164 41.7146 30.4164 42.9146C30.4164 44.0666 30.5844 45.0146 30.9204 45.7586C31.2804 46.4786 31.8444 46.8386 32.6124 46.8386ZM42.7669 49.2146C42.6709 49.2146 42.5869 49.1906 42.5149 49.1426C42.4669 49.1186 42.4429 49.0826 42.4429 49.0346C42.4429 48.9626 42.5149 48.8066 42.6589 48.5666C42.8029 48.3266 42.9109 47.9906 42.9829 47.5586C43.0789 47.0546 43.1629 46.5986 43.2349 46.1906C43.3069 45.7586 43.3789 45.3626 43.4509 45.0026C44.0509 41.7146 44.4469 39.4226 44.6389 38.1266C44.8549 36.8066 44.9509 35.8466 44.9269 35.2466C44.9269 34.9346 44.9029 34.7066 44.8549 34.5626C44.8069 34.4186 44.6989 34.3466 44.5309 34.3466C44.3149 34.3466 44.0389 34.5266 43.7029 34.8866C43.3669 35.2466 43.0549 35.6666 42.7669 36.1466C42.6469 36.3626 42.5389 36.5546 42.4429 36.7226C42.3469 36.8666 42.2629 36.9746 42.1909 37.0466C42.1429 37.1186 42.0829 37.1546 42.0109 37.1546C41.9149 37.1546 41.8429 37.1186 41.7949 37.0466C41.7469 36.9746 41.7229 36.8786 41.7229 36.7586C41.7229 36.3026 41.9749 35.6666 42.4789 34.8506C43.0069 34.0346 43.6189 33.3146 44.3149 32.6906C45.0349 32.0426 45.6709 31.7186 46.2229 31.7186C46.6789 31.7186 46.9909 31.8986 47.1589 32.2586C47.3509 32.6186 47.4469 33.1826 47.4469 33.9506C47.4469 35.0066 47.2189 36.4346 46.7629 38.2346H46.8349C49.1149 33.8906 51.2269 31.7186 53.1709 31.7186C53.6749 31.7186 54.0589 31.8626 54.3229 32.1506C54.6109 32.4146 54.7549 32.7986 54.7549 33.3026C54.7549 33.8306 54.6349 34.3706 54.3949 34.9226C54.1789 35.4746 53.9029 35.9306 53.5669 36.2906C53.2549 36.6506 52.9669 36.8306 52.7029 36.8306C52.5349 36.8306 52.4749 36.7226 52.5229 36.5066C52.5949 36.1706 52.6309 35.9066 52.6309 35.7146C52.6309 35.1386 52.3189 34.8506 51.6949 34.8506C50.9509 34.8506 50.2069 35.2826 49.4629 36.1466C48.7189 37.0106 48.0589 38.0666 47.4829 39.3146C46.9309 40.5626 46.5469 41.7026 46.3309 42.7346C46.0429 43.8386 45.8629 44.9906 45.7909 46.1906C45.7429 46.6466 45.5269 47.1146 45.1429 47.5946C44.7829 48.0506 44.3629 48.4346 43.8829 48.7466C43.4029 49.0586 43.0309 49.2146 42.7669 49.2146ZM57.8594 49.2146C56.7794 49.2146 55.9154 48.8066 55.2674 47.9906C54.6434 47.1506 54.3314 45.9986 54.3314 44.5346C54.3314 42.7586 54.7514 40.8626 55.5914 38.8466C56.4554 36.8066 57.5594 35.1146 58.9034 33.7706C60.2474 32.4026 61.6034 31.7186 62.9714 31.7186C64.2194 31.7186 64.8434 32.4746 64.8434 33.9866C64.8434 35.2106 64.4834 36.4106 63.7634 37.5866C63.0434 38.7626 62.0714 39.8066 60.8474 40.7186C59.6474 41.6066 58.3274 42.2906 56.8874 42.7706C56.8874 44.0666 57.0914 45.0026 57.4994 45.5786C57.9314 46.1546 58.5554 46.4426 59.3714 46.4426C60.2354 46.4426 61.0274 46.1666 61.7474 45.6146C62.4674 45.0626 63.0794 44.3066 63.5834 43.3466C63.6554 43.2026 63.7274 43.0826 63.7994 42.9866C63.8714 42.8906 63.9674 42.8426 64.0874 42.8426C64.2794 42.8426 64.3754 42.9866 64.3754 43.2746C64.3754 43.9226 64.0514 44.7266 63.4034 45.6866C62.7554 46.6466 61.9274 47.4746 60.9194 48.1706C59.9114 48.8666 58.8914 49.2146 57.8594 49.2146ZM58.0394 40.8626C58.6634 40.8626 59.3234 40.6466 60.0194 40.2146C60.7394 39.7586 61.3394 39.1466 61.8194 38.3786C62.2994 37.6106 62.5394 36.7466 62.5394 35.7866C62.5394 34.6586 62.1434 34.0946 61.3514 34.0946C60.7034 34.0946 60.0794 34.4426 59.4794 35.1386C58.9034 35.8346 58.4114 36.6986 58.0034 37.7306C57.6194 38.7626 57.3554 39.7586 57.2114 40.7186C57.3554 40.8146 57.6314 40.8626 58.0394 40.8626ZM70.8807 49.2146C70.1607 49.2146 69.6567 48.9746 69.3687 48.4946C69.0807 47.9906 68.9367 47.3186 68.9367 46.4786C68.9367 45.8546 68.9847 45.1946 69.0807 44.4986C69.2007 43.7786 69.2727 43.3466 69.2967 43.2026L70.7727 33.9506H67.1367C67.0167 33.9506 66.9567 33.8906 66.9567 33.7706C66.9567 33.5306 67.2207 33.1946 67.7487 32.7626C68.2767 32.3066 68.6607 32.0786 68.9007 32.0786H71.0607L71.4207 29.8466C71.5167 29.0546 71.8887 28.3466 72.5367 27.7226C73.1847 27.0986 73.8327 26.7866 74.4807 26.7866C74.6007 26.7866 74.6607 26.8466 74.6607 26.9666C74.6607 27.0626 74.5527 27.3506 74.3367 27.8306C74.1207 28.2866 73.9647 28.7786 73.8687 29.3066L73.4367 32.0786H76.9647C77.1087 32.0786 77.1807 32.1506 77.1807 32.2946C77.1807 32.4866 76.8927 32.8106 76.3167 33.2666C75.7647 33.7226 75.4047 33.9506 75.2367 33.9506H73.2207L71.7447 43.1306C71.7207 43.2986 71.6487 43.7066 71.5287 44.3546C71.4327 45.0026 71.3847 45.5066 71.3847 45.8666C71.3847 46.6586 71.6487 47.0546 72.1767 47.0546C72.5607 47.0546 72.9687 46.8746 73.4007 46.5146C73.8327 46.1306 74.2167 45.6026 74.5527 44.9306C74.5767 44.8826 74.6007 44.8346 74.6247 44.7866C74.6727 44.7386 74.7207 44.7146 74.7687 44.7146C74.8887 44.7146 74.9487 44.8706 74.9487 45.1826C74.9487 45.6626 74.7327 46.2266 74.3007 46.8746C73.8927 47.5226 73.3647 48.0746 72.7167 48.5306C72.0927 48.9866 71.4807 49.2146 70.8807 49.2146ZM81.2726 49.2146C80.2646 49.2146 79.7606 48.4586 79.7606 46.9466C79.7606 46.2026 79.8806 45.1466 80.1206 43.7786L81.3446 36.3626C81.4406 35.4986 81.4886 35.0066 81.4886 34.8866C81.4886 34.5266 81.3926 34.3466 81.2006 34.3466C80.6486 34.3466 80.0006 35.0666 79.2566 36.5066C79.2086 36.6026 79.1246 36.7706 79.0046 37.0106C78.9086 37.2266 78.8246 37.3706 78.7526 37.4426C78.6806 37.4906 78.6086 37.5146 78.5366 37.5146C78.4886 37.5146 78.4406 37.4786 78.3926 37.4066C78.3446 37.3106 78.3206 37.2026 78.3206 37.0826C78.3206 36.6026 78.5606 35.9306 79.0406 35.0666C79.5446 34.1786 80.1566 33.3986 80.8766 32.7266C81.5966 32.0546 82.2806 31.7186 82.9286 31.7186C83.3126 31.7186 83.6126 31.8866 83.8286 32.2226C84.0686 32.5346 84.1886 32.9666 84.1886 33.5186C84.1886 33.8786 84.1646 34.1546 84.1166 34.3466L82.4246 44.9666C82.3766 45.3026 82.3526 45.5186 82.3526 45.6146C82.3526 46.1186 82.5446 46.3706 82.9286 46.3706C83.7206 46.3706 84.5726 45.8426 85.4846 44.7866C86.4206 43.7066 87.2366 42.4226 87.9326 40.9346C88.6526 39.4466 89.1206 38.1386 89.3366 37.0106L89.8406 34.3826C90.0326 33.5186 90.4166 32.8586 90.9926 32.4026C91.5926 31.9466 92.1446 31.7186 92.6486 31.7186C92.8406 31.7186 92.9366 31.7786 92.9366 31.8986C92.9366 31.9706 92.8886 32.1146 92.7926 32.3306C92.6966 32.5226 92.6246 32.7626 92.5766 33.0506C92.2406 34.5386 91.5806 37.9946 90.5966 43.4186L90.3806 44.5706C90.2126 45.4106 90.1286 45.9266 90.1286 46.1186C90.1286 46.4546 90.2366 46.6226 90.4526 46.6226C90.8366 46.6226 91.2566 46.3226 91.7126 45.7226C92.1926 45.0986 92.5766 44.4266 92.8646 43.7066C93.0086 43.4426 93.1286 43.3106 93.2246 43.3106C93.3686 43.3106 93.4406 43.4186 93.4406 43.6346C93.4406 43.8986 93.4166 44.1266 93.3686 44.3186C93.2006 45.1826 92.8646 45.9866 92.3606 46.7306C91.8566 47.4746 91.2926 48.0746 90.6686 48.5306C90.0446 48.9866 89.4686 49.2146 88.9406 49.2146C88.0046 49.2146 87.5606 48.4706 87.6086 46.9826C87.6566 46.3346 87.8006 45.4586 88.0406 44.3546L88.3646 42.5906H88.3286C87.0806 44.5826 85.8086 46.1906 84.5126 47.4146C83.2166 48.6146 82.1366 49.2146 81.2726 49.2146ZM96.8682 49.2146C96.6522 49.2146 96.5442 49.1426 96.5442 48.9986C96.5442 48.9266 96.5922 48.7586 96.6882 48.4946C96.8082 48.2066 96.9642 47.6066 97.1562 46.6946C97.4202 45.5666 97.6602 44.3546 97.8762 43.0586C98.1162 41.7626 98.4522 39.6506 98.8842 36.7226C99.0282 35.8106 99.1002 35.1746 99.1002 34.8146C99.1002 34.5026 99.0282 34.3466 98.8842 34.3466C98.6442 34.3466 98.3802 34.5386 98.0922 34.9226C97.8042 35.3066 97.4562 35.8346 97.0482 36.5066C96.9282 36.7226 96.8202 36.9146 96.7242 37.0826C96.6282 37.2266 96.5442 37.3346 96.4722 37.4066C96.4242 37.4786 96.3642 37.5146 96.2922 37.5146C96.1002 37.5146 96.0042 37.3826 96.0042 37.1186C96.0042 36.6386 96.2682 35.9666 96.7962 35.1026C97.3242 34.2146 97.9482 33.4346 98.6682 32.7626C99.3882 32.0666 100.036 31.7186 100.612 31.7186C100.996 31.7186 101.272 31.8986 101.44 32.2586C101.608 32.5946 101.692 33.0266 101.692 33.5546C101.692 34.0586 101.572 35.1266 101.332 36.7586L101.152 38.0186H101.188C102.364 35.9306 103.504 34.3586 104.608 33.3026C105.736 32.2466 106.804 31.7186 107.812 31.7186C108.292 31.7186 108.64 31.8746 108.856 32.1866C109.072 32.4746 109.18 32.9666 109.18 33.6626C109.18 34.3346 109.072 35.2826 108.856 36.5066L108.676 37.5146H108.748C109.828 35.6186 110.908 34.1786 111.988 33.1946C113.092 32.2106 114.076 31.7186 114.94 31.7186C115.948 31.7186 116.452 32.4386 116.452 33.8786C116.452 34.3826 116.344 35.2586 116.128 36.5066L115.3 40.8266C114.7 43.8746 114.4 45.6026 114.4 46.0106C114.4 46.4426 114.58 46.6586 114.94 46.6586C115.348 46.6586 115.72 46.3946 116.056 45.8666C116.392 45.3146 116.752 44.5946 117.136 43.7066C117.232 43.4426 117.352 43.3106 117.496 43.3106C117.64 43.3106 117.712 43.4546 117.712 43.7426C117.712 43.9586 117.7 44.1506 117.676 44.3186C117.508 45.1826 117.16 45.9986 116.632 46.7666C116.128 47.5106 115.552 48.1106 114.904 48.5666C114.256 48.9986 113.668 49.2146 113.14 49.2146C112.276 49.2146 111.844 48.5666 111.844 47.2706C111.844 46.2866 112.144 44.3666 112.744 41.5106C112.816 41.1506 112.972 40.3106 113.212 38.9906C113.476 37.6706 113.632 36.5666 113.68 35.6786C113.68 35.2706 113.644 34.9706 113.572 34.7786C113.5 34.5866 113.32 34.4906 113.032 34.4906C112.48 34.4906 111.856 34.8866 111.16 35.6786C110.488 36.4706 109.852 37.4666 109.252 38.6666C108.652 39.8666 108.196 41.0426 107.884 42.1946L106.768 47.9186C106.744 48.2066 106.468 48.4946 105.94 48.7826C105.436 49.0706 105.028 49.2146 104.716 49.2146C104.38 49.2146 104.212 49.0706 104.212 48.7826C104.428 47.8466 104.824 45.8066 105.4 42.6626C105.976 39.4946 106.312 37.1666 106.408 35.6786V35.3186C106.408 35.0546 106.372 34.8506 106.3 34.7066C106.228 34.5626 106.072 34.4906 105.832 34.4906C105.184 34.4906 104.452 34.9946 103.636 36.0026C102.844 36.9866 102.124 38.1986 101.476 39.6386C100.852 41.0546 100.444 42.3386 100.252 43.4906L99.6762 46.6226C99.5322 47.2466 99.1482 47.8346 98.5242 48.3866C97.9002 48.9386 97.3482 49.2146 96.8682 49.2146Z" fill="url(#paint0_linear_5_105)"/>
<defs>
<linearGradient id="paint0_linear_5_105" x1="128" y1="51.8546" x2="1.00001" y2="15.3546" gradientUnits="userSpaceOnUse">
<stop stop-color="#8FAE9B"/>
<stop offset="1" stop-color="#3B4840"/>
</linearGradient>
</defs>
</svg>
