<svg width="397" height="251" viewBox="0 0 397 251" fill="none" xmlns="http://www.w3.org/2000/svg">
<path d="M224.301 89.988L235.57 106.087C238.398 127.585 235.57 186.534 201.625 250.35C196.533 250.35 140.525 112.875 186.35 -0.837746C191.442 -5.92938 196.533 2.55668 199.928 4.25389C203.322 5.9511 155.801 53.473 201.625 223.194C211.458 188.779 229.203 115.753 224.301 89.988Z" fill="#FBFFFD"/>
<path d="M223.689 89.1145L224.301 89.988M223.689 87.4173C223.922 88.2116 224.126 89.0698 224.301 89.988M224.301 89.988L235.57 106.087C238.398 127.585 235.57 186.534 201.625 250.35C196.533 250.35 140.525 112.875 186.35 -0.837746C191.442 -5.92938 196.533 2.55668 199.928 4.25389C203.322 5.9511 155.801 53.473 201.625 223.194C211.458 188.779 229.203 115.753 224.301 89.988Z" stroke="#FBFFFD" stroke-linejoin="bevel"/>
<path d="M281.306 41.4675L300.35 46.3143C316.521 60.76 352.841 107.278 368.756 177.786C364.897 181.108 232.755 113.473 193.285 -2.59891C193.822 -9.77957 203.217 -6.67097 206.897 -7.59961C210.577 -8.52824 205.572 58.4908 351.037 157.207C336.034 124.712 301.833 57.794 281.306 41.4675Z" fill="#FBFFFD"/>
<path d="M280.273 41.2045L281.306 41.4675M279.165 39.9186C279.861 40.3681 280.575 40.8856 281.306 41.4675M281.306 41.4675L300.35 46.3143C316.521 60.76 352.841 107.278 368.756 177.786C364.897 181.108 232.755 113.473 193.285 -2.59891C193.822 -9.77957 203.217 -6.67097 206.897 -7.59961C210.577 -8.52824 205.572 58.4908 351.037 157.207C336.034 124.712 301.833 57.794 281.306 41.4675Z" stroke="#FBFFFD" stroke-linejoin="bevel"/>
<path d="M161.881 71.2896L159.658 90.8144C147.536 108.793 106.366 151.079 38.6643 176.398C34.8499 173.025 83.962 32.9388 193.618 -21.8892C200.805 -22.3305 198.998 -12.6005 200.417 -9.08054C201.835 -5.56053 134.756 -1.4412 56.6532 156.055C86.8169 136.788 148.485 93.8382 161.881 71.2896Z" fill="#FBFFFD"/>
<path d="M162.001 70.2302L161.881 71.2896M163.125 68.9586C162.774 69.7083 162.358 70.486 161.881 71.2896M161.881 71.2896L159.658 90.8144C147.536 108.793 106.366 151.079 38.6643 176.398C34.8499 173.025 83.962 32.9388 193.618 -21.8892C200.805 -22.3305 198.998 -12.6005 200.417 -9.08054C201.835 -5.56053 134.756 -1.4412 56.6532 156.055C86.8169 136.788 148.485 93.8382 161.881 71.2896Z" stroke="#FBFFFD" stroke-linejoin="bevel"/>
<path d="M269.904 -24.4414L284.213 -31.1132C301.437 -30.179 347.037 -19.0909 391.64 17.7889C390.855 21.8907 274.863 46.4624 193.125 -7.4443C189.934 -12.3067 197.346 -15.14 199.194 -17.6207C201.043 -20.1013 230.829 25.2803 370.433 13.7308C345.073 0.667146 290.78 -24.5399 269.904 -24.4414Z" fill="#FBFFFD"/>
<path d="M269.127 -24.0794L269.904 -24.4414M267.802 -24.3328C268.458 -24.4022 269.16 -24.4379 269.904 -24.4414M269.904 -24.4414L284.213 -31.1132C301.437 -30.179 347.037 -19.0909 391.64 17.7889C390.855 21.8907 274.863 46.4624 193.125 -7.4443C189.934 -12.3067 197.346 -15.14 199.194 -17.6207C201.043 -20.1013 230.829 25.2803 370.433 13.7308C345.073 0.667146 290.78 -24.5399 269.904 -24.4414Z" stroke="#FBFFFD" stroke-linejoin="bevel"/>
<path d="M128.892 14.6922L117.858 25.1865C101.743 29.7737 56.3604 34.1864 3.74553 15.1401C3.17066 11.212 101.938 -47.3738 194.038 -24.7448C198.505 -21.3866 192.593 -16.5094 191.679 -13.701C190.765 -10.8925 149.072 -42.2353 24.5041 12.1022C51.9223 15.8373 109.749 21.3564 128.892 14.6922Z" fill="#FBFFFD"/>
<path d="M129.491 14.1228L128.892 14.6922M130.788 13.9327C130.207 14.2017 129.574 14.4547 128.892 14.6922M128.892 14.6922L117.858 25.1865C101.743 29.7737 56.3604 34.1864 3.74553 15.1401C3.17066 11.212 101.938 -47.3738 194.038 -24.7448C198.505 -21.3866 192.593 -16.5094 191.679 -13.701C190.765 -10.8925 149.072 -42.2353 24.5041 12.1022C51.9223 15.8373 109.749 21.3564 128.892 14.6922Z" stroke="#FBFFFD" stroke-linejoin="bevel"/>
</svg>
