<svg width="397" height="299" viewBox="0 0 397 299" fill="none" xmlns="http://www.w3.org/2000/svg">
<path d="M224.301 137.988L235.57 154.087C238.398 175.585 235.57 234.534 201.625 298.35C196.533 298.35 140.525 160.875 186.35 47.1622C191.442 42.0706 196.533 50.5567 199.928 52.2539C203.322 53.9511 155.801 101.473 201.625 271.194C211.458 236.779 229.203 163.753 224.301 137.988Z" fill="#FBFFFD"/>
<path d="M223.689 137.114L224.301 137.988M223.689 135.417C223.922 136.212 224.126 137.07 224.301 137.988M224.301 137.988L235.57 154.087C238.398 175.585 235.57 234.534 201.625 298.35C196.533 298.35 140.525 160.875 186.35 47.1623C191.442 42.0706 196.533 50.5567 199.928 52.2539C203.322 53.9511 155.801 101.473 201.625 271.194C211.458 236.779 229.203 163.753 224.301 137.988Z" stroke="#FBFFFD" stroke-linejoin="bevel"/>
<path d="M281.306 89.4675L300.35 94.3143C316.521 108.76 352.841 155.278 368.756 225.786C364.897 229.108 232.755 161.473 193.285 45.4011C193.822 38.2204 203.217 41.329 206.897 40.4004C210.577 39.4718 205.572 106.491 351.037 205.207C336.034 172.712 301.833 105.794 281.306 89.4675Z" fill="#FBFFFD"/>
<path d="M280.273 89.2045L281.306 89.4675M279.165 87.9186C279.861 88.3681 280.575 88.8856 281.306 89.4675M281.306 89.4675L300.35 94.3143C316.521 108.76 352.841 155.278 368.756 225.786C364.897 229.108 232.755 161.473 193.285 45.4011C193.822 38.2204 203.217 41.329 206.897 40.4004C210.577 39.4718 205.572 106.491 351.037 205.207C336.034 172.712 301.833 105.794 281.306 89.4675Z" stroke="#FBFFFD" stroke-linejoin="bevel"/>
<path d="M161.881 119.29L159.658 138.814C147.536 156.793 106.366 199.079 38.6644 224.398C34.8499 221.025 83.962 80.9388 193.618 26.1108C200.805 25.6695 198.998 35.3994 200.417 38.9195C201.835 42.4395 134.756 46.5588 56.6532 204.055C86.8169 184.788 148.485 141.838 161.881 119.29Z" fill="#FBFFFD"/>
<path d="M162.001 118.23L161.881 119.29M163.125 116.959C162.774 117.708 162.358 118.486 161.881 119.29M161.881 119.29L159.658 138.814C147.536 156.793 106.366 199.079 38.6643 224.398C34.8499 221.025 83.962 80.9388 193.618 26.1108C200.805 25.6695 198.998 35.3995 200.417 38.9195C201.835 42.4395 134.756 46.5588 56.6532 204.055C86.8169 184.788 148.485 141.838 161.881 119.29Z" stroke="#FBFFFD" stroke-linejoin="bevel"/>
<path d="M269.904 23.5586L284.213 16.8868C301.437 17.821 347.037 28.9091 391.64 65.7889C390.855 69.8907 274.863 94.4624 193.125 40.5557C189.934 35.6933 197.346 32.86 199.194 30.3793C201.043 27.8987 230.829 73.2803 370.433 61.7308C345.073 48.6671 290.78 23.4601 269.904 23.5586Z" fill="#FBFFFD"/>
<path d="M269.127 23.9206L269.904 23.5586M267.802 23.6672C268.458 23.5978 269.16 23.5621 269.904 23.5586M269.904 23.5586L284.213 16.8868C301.437 17.821 347.037 28.9091 391.64 65.7889C390.855 69.8907 274.863 94.4624 193.125 40.5557C189.934 35.6933 197.346 32.86 199.194 30.3793C201.043 27.8987 230.829 73.2803 370.433 61.7308C345.073 48.6671 290.78 23.4601 269.904 23.5586Z" stroke="#FBFFFD" stroke-linejoin="bevel"/>
<path d="M128.892 62.6922L117.858 73.1865C101.743 77.7737 56.3604 82.1864 3.74553 63.1401C3.17066 59.212 101.938 0.626186 194.038 23.2552C198.505 26.6134 192.593 31.4906 191.679 34.299C190.765 37.1075 149.072 5.76467 24.5041 60.1022C51.9223 63.8373 109.749 69.3564 128.892 62.6922Z" fill="#FBFFFD"/>
<path d="M129.491 62.1228L128.892 62.6922M130.788 61.9327C130.207 62.2017 129.574 62.4547 128.892 62.6922M128.892 62.6922L117.858 73.1865C101.743 77.7737 56.3604 82.1864 3.74553 63.1401C3.17066 59.212 101.938 0.626189 194.038 23.2552C198.505 26.6134 192.593 31.4906 191.679 34.299C190.765 37.1075 149.072 5.76466 24.5041 60.1022C51.9223 63.8373 109.749 69.3564 128.892 62.6922Z" stroke="#FBFFFD" stroke-linejoin="bevel"/>
</svg>
