<svg width="140" height="88" viewBox="0 0 140 88" fill="none" xmlns="http://www.w3.org/2000/svg">
<path d="M66.8774 47.2427L63.5575 42.5C62.7242 36.1667 63.5575 18.8 73.5575 0C75.0576 0 91.5576 40.5 78.0576 74C76.5576 75.5 75.0576 73 74.0576 72.5C73.0576 72 87.0574 58 73.5575 8C70.6608 18.1387 65.4332 39.6522 66.8774 47.2427Z" fill="#FFFEFE" fill-opacity="0.8"/>
<path d="M50.0834 61.5369L44.4731 60.109C39.7092 55.8533 29.0094 42.149 24.3208 21.3775C25.4576 20.3987 64.3868 40.3239 76.0145 74.5189C75.8565 76.6343 73.0886 75.7185 72.0046 75.9921C70.9205 76.2657 72.3949 56.5218 29.5406 27.4399C33.9608 37.0131 44.0364 56.7271 50.0834 61.5369Z" fill="#FFFEFE" fill-opacity="0.8"/>
<path d="M85.2663 52.7512L85.9211 46.9992C89.4923 41.7027 101.621 29.2452 121.566 21.7862C122.69 22.78 108.221 64.0494 75.9164 80.2017C73.7991 80.3317 74.3315 77.4653 73.9136 76.4283C73.4957 75.3913 93.2574 74.1777 116.266 27.7791C107.38 33.4553 89.2127 46.1083 85.2663 52.7512Z" fill="#FFFEFE" fill-opacity="0.8"/>
<path d="M53.4427 80.9536L49.2272 82.9191C44.1529 82.6439 30.7192 79.3773 17.5792 68.5125C17.8104 67.3041 51.9815 60.0652 76.0617 75.9462C77.0019 77.3787 74.8183 78.2133 74.2737 78.9442C73.7291 79.675 64.9541 66.3055 23.8266 69.708C31.2977 73.5566 47.2924 80.9826 53.4427 80.9536Z" fill="#FFFEFE" fill-opacity="0.8"/>
<path d="M94.9848 69.4249L98.2355 66.3333C102.983 64.9819 116.353 63.6819 131.853 69.293C132.022 70.4502 102.925 87.7096 75.7927 81.0431C74.4767 80.0538 76.2185 78.6169 76.4878 77.7896C76.7571 76.9622 89.0398 86.1958 125.738 70.1879C117.66 69.0876 100.624 67.4616 94.9848 69.4249Z" fill="#FFFEFE" fill-opacity="0.8"/>
<g filter="url(#filter0_dddd_9_44)">
<path d="M31.4792 58.96C31.7192 58.96 31.8392 59.1467 31.8392 59.52C31.8392 59.7067 31.8259 59.8533 31.7992 59.96C31.7192 60.8667 31.3859 61.8267 30.7992 62.84C30.2126 63.8533 29.4926 64.7067 28.6392 65.4C27.8126 66.0667 26.9859 66.4 26.1592 66.4C24.7459 66.4 24.0392 65.3867 24.0392 63.36C24.0392 62.8533 24.1059 62.1733 24.2392 61.32L26.5592 46.64C27.1459 42.88 27.7859 40.0133 28.4792 38.04C29.1992 36.04 30.0259 34.48 30.9592 33.36C29.0926 33.4133 27.5459 33.6 26.3192 33.92C25.0926 34.2133 24.0659 34.8267 23.2392 35.76C22.4126 36.6933 21.7859 37.9467 21.3592 39.52C20.9592 41.0667 20.5459 43.4267 20.1192 46.6L19.9992 47.36H21.6392C22.4392 47.36 23.0659 47.2667 23.5192 47.08C23.9726 46.8933 24.2526 46.8 24.3592 46.8C24.6259 46.8 24.7592 46.9333 24.7592 47.2C24.7592 47.4133 24.7059 47.6667 24.5992 47.96C24.3326 48.6267 23.8526 49.24 23.1592 49.8C22.4926 50.36 21.7992 50.64 21.0792 50.64H19.5192L17.3592 64.8C16.4792 70.6933 15.0392 75.0267 13.0392 77.8C11.0659 80.5733 8.42589 81.96 5.11922 81.96C4.37255 81.96 3.85255 81.88 3.55922 81.72C3.23922 81.5867 2.87922 81.2933 2.47922 80.84C1.91922 80.12 1.63922 79.5733 1.63922 79.2C1.63922 78.9333 1.81255 78.8 2.15922 78.8C2.37255 78.8 2.75922 78.88 3.31922 79.04C4.33255 79.3333 5.21255 79.48 5.95922 79.48C7.29255 79.48 8.37255 79.2133 9.19922 78.68C10.0259 78.1467 10.6926 77.2133 11.1992 75.88C11.7326 74.5467 12.1859 72.6133 12.5592 70.08L15.4792 50.64H13.5992C12.9859 50.64 12.4659 50.7333 12.0392 50.92C11.6126 51.1067 11.3459 51.2 11.2392 51.2C10.9992 51.2 10.8792 51.08 10.8792 50.84C10.8792 50.5733 10.9459 50.3067 11.0792 50.04C11.3992 49.2933 11.8792 48.6667 12.5192 48.16C13.1859 47.6267 13.8792 47.36 14.5992 47.36H15.9992L16.0792 46.64C16.5859 43.2 17.2126 40.4933 17.9592 38.52C18.7326 36.52 19.7592 34.9467 21.0392 33.8C22.4259 32.6267 23.9459 31.8667 25.5992 31.52C27.2526 31.1733 29.1192 30.9733 31.1992 30.92L32.1192 30.88C32.9192 30.8533 33.4259 30.7867 33.6392 30.68C33.8526 30.5467 34.0259 30.48 34.1592 30.48C34.4526 30.48 34.5992 30.6267 34.5992 30.92C34.5992 31.2667 34.4659 31.68 34.1992 32.16C33.6392 33.2 33.2259 34.0667 32.9592 34.76C32.6926 35.4267 32.4126 36.4 32.1192 37.68C31.8526 38.96 31.5059 40.8933 31.0792 43.48L28.2392 61.12C28.1859 61.4933 28.1592 61.7333 28.1592 61.84C28.1592 62.3733 28.3326 62.64 28.6792 62.64C29.0526 62.64 29.3992 62.3867 29.7192 61.88C30.0659 61.3733 30.4792 60.5867 30.9592 59.52C31.0926 59.1467 31.2659 58.96 31.4792 58.96ZM37.9192 66.4C36.6659 66.4 35.6792 65.9467 34.9592 65.04C34.2392 64.1067 33.8792 62.7733 33.8792 61.04C33.8792 58.88 34.4126 56.7067 35.4792 54.52C36.5726 52.3333 37.9326 50.5333 39.5592 49.12C41.2126 47.68 42.8126 46.96 44.3592 46.96C45.6126 46.96 46.5859 47.4267 47.2792 48.36C47.9726 49.2933 48.3192 50.6 48.3192 52.28C48.3192 54.3333 47.7992 56.4667 46.7592 58.68C45.7459 60.8933 44.4259 62.7333 42.7992 64.2C41.1992 65.6667 39.5726 66.4 37.9192 66.4ZM40.0792 62.92C40.8259 62.92 41.5059 62.5333 42.1192 61.76C42.7326 60.96 43.2126 59.8933 43.5592 58.56C43.9059 57.2267 44.0792 55.7733 44.0792 54.2C44.0792 52.8667 43.9326 51.9067 43.6392 51.32C43.3459 50.7333 42.8926 50.44 42.2792 50.44C41.5592 50.44 40.8792 50.8133 40.2392 51.56C39.6259 52.28 39.1192 53.28 38.7192 54.56C38.3459 55.84 38.1592 57.2667 38.1592 58.84C38.1592 61.56 38.7992 62.92 40.0792 62.92ZM51.587 66.4C51.1337 66.4 50.907 66.24 50.907 65.92C50.907 65.7867 51.0004 65.4933 51.187 65.04C51.4004 64.56 51.6004 63.8267 51.787 62.84L52.467 59C53.187 54.8933 53.5604 52.4933 53.587 51.8V51.44C53.587 50.9867 53.467 50.76 53.227 50.76C52.7204 50.76 52.027 51.5733 51.147 53.2C51.0404 53.4133 50.9204 53.6133 50.787 53.8C50.6537 53.96 50.5204 54.04 50.387 54.04C50.1204 54.04 49.987 53.8133 49.987 53.36C49.987 52.6667 50.2937 51.8133 50.907 50.8C51.547 49.76 52.3204 48.8667 53.227 48.12C54.1604 47.3467 55.0537 46.96 55.907 46.96C57.0537 46.96 57.627 47.72 57.627 49.24C57.627 49.56 57.5204 50.68 57.307 52.6H57.347C58.467 50.6267 59.5204 49.2 60.507 48.32C61.5204 47.4133 62.5337 46.96 63.547 46.96C64.2404 46.96 64.8004 47.16 65.227 47.56C65.6537 47.96 65.867 48.5333 65.867 49.28C65.867 50 65.6937 50.7067 65.347 51.4C65.027 52.0933 64.627 52.6667 64.147 53.12C63.667 53.5467 63.2537 53.76 62.907 53.76C62.6937 53.76 62.627 53.6267 62.707 53.36C62.787 52.9867 62.827 52.64 62.827 52.32C62.827 51.6267 62.5204 51.28 61.907 51.28C60.8937 51.28 59.8804 51.9733 58.867 53.36C57.8804 54.7467 57.107 56.7467 56.547 59.36C56.147 61.0133 55.8804 62.3067 55.747 63.24C55.6137 63.9867 55.0804 64.7067 54.147 65.4C53.2404 66.0667 52.387 66.4 51.587 66.4ZM69.0614 66.4C67.6747 66.4 66.5814 65.9333 65.7814 65C65.0081 64.04 64.6214 62.7067 64.6214 61C64.6214 59 65.1281 56.9067 66.1414 54.72C67.1814 52.5067 68.4881 50.6667 70.0614 49.2C71.6614 47.7067 73.2614 46.96 74.8614 46.96C75.7414 46.96 76.4347 47.2133 76.9414 47.72C77.4747 48.2267 77.7414 48.96 77.7414 49.92C77.7414 51.12 77.3547 52.36 76.5814 53.64C75.8081 54.8933 74.7414 56.0667 73.3814 57.16C72.0481 58.2267 70.5414 59.0933 68.8614 59.76C68.9414 61.6 69.7547 62.52 71.3014 62.52C72.1547 62.52 72.9547 62.2533 73.7014 61.72C74.4747 61.1867 75.1547 60.4667 75.7414 59.56C75.8747 59.32 75.9947 59.1467 76.1014 59.04C76.2081 58.9067 76.3147 58.84 76.4214 58.84C76.5814 58.84 76.6881 58.8933 76.7414 59C76.7947 59.1067 76.8214 59.2933 76.8214 59.56C76.8214 60.4133 76.4347 61.3867 75.6614 62.48C74.9147 63.5733 73.9414 64.5067 72.7414 65.28C71.5414 66.0267 70.3147 66.4 69.0614 66.4ZM69.8614 56.48C70.4481 56.48 71.0481 56.28 71.6614 55.88C72.2747 55.4533 72.7814 54.9067 73.1814 54.24C73.5814 53.5733 73.7814 52.8533 73.7814 52.08C73.7814 51.12 73.3947 50.64 72.6214 50.64C71.7947 50.64 71.0481 51.16 70.3814 52.2C69.7147 53.24 69.2881 54.6267 69.1014 56.36C69.2614 56.44 69.5147 56.48 69.8614 56.48ZM83.9936 66.4C83.1136 66.4 82.4603 66.12 82.0336 65.56C81.6069 65 81.3936 64.1067 81.3936 62.88C81.3936 62.1067 81.5003 61.08 81.7136 59.8L83.3536 50.44H80.1136C79.8203 50.44 79.6069 50.4133 79.4736 50.36C79.3669 50.28 79.3136 50.1733 79.3136 50.04C79.3136 49.8 79.4869 49.4667 79.8336 49.04C80.1803 48.6133 80.5669 48.2267 80.9936 47.88C81.4469 47.5333 81.8203 47.36 82.1136 47.36H83.9536L84.2736 45.28C84.4603 44.2933 85.0069 43.4133 85.9136 42.64C86.8469 41.8667 87.7536 41.48 88.6336 41.48C88.8469 41.48 89.0203 41.52 89.1536 41.6C89.2869 41.68 89.3536 41.8 89.3536 41.96C89.3536 42.0667 89.2203 42.36 88.9536 42.84C88.6869 43.2933 88.4869 43.9333 88.3536 44.76L87.9136 47.36H91.3136C91.6336 47.36 91.8469 47.3867 91.9536 47.44C92.0603 47.4667 92.1136 47.5467 92.1136 47.68C92.1136 47.9467 91.9269 48.3067 91.5536 48.76C91.1803 49.1867 90.7536 49.5733 90.2736 49.92C89.7936 50.2667 89.4336 50.44 89.1936 50.44H87.3936L85.7936 59.96C85.6069 60.8933 85.5136 61.6133 85.5136 62.12C85.5136 62.4933 85.5669 62.76 85.6736 62.92C85.8069 63.0533 85.9936 63.12 86.2336 63.12C87.1136 63.12 87.9403 62.4 88.7136 60.96C88.7936 60.7733 88.8736 60.64 88.9536 60.56C89.0336 60.4533 89.1269 60.4 89.2336 60.4C89.5003 60.4 89.6336 60.6267 89.6336 61.08C89.6336 61.7733 89.3669 62.5467 88.8336 63.4C88.3003 64.2267 87.5936 64.9333 86.7136 65.52C85.8603 66.1067 84.9536 66.4 83.9936 66.4ZM96.5252 66.4C95.1385 66.4 94.4452 65.3467 94.4452 63.24C94.4452 62.44 94.5652 61.32 94.8052 59.88L96.0452 52.56C96.1518 52.0267 96.2052 51.5733 96.2052 51.2C96.2052 50.8533 96.0852 50.68 95.8452 50.68C95.5785 50.68 95.2852 50.8667 94.9652 51.24C94.6718 51.5867 94.2585 52.24 93.7252 53.2C93.6185 53.4133 93.4985 53.6133 93.3652 53.8C93.2318 53.96 93.0985 54.04 92.9652 54.04C92.6985 54.04 92.5652 53.8133 92.5652 53.36C92.5652 52.6667 92.8852 51.8133 93.5252 50.8C94.1652 49.76 94.9385 48.8667 95.8452 48.12C96.7785 47.3467 97.6718 46.96 98.5252 46.96C99.1118 46.96 99.5518 47.1467 99.8452 47.52C100.165 47.8667 100.325 48.3733 100.325 49.04C100.325 49.2 100.298 49.4667 100.245 49.84L98.5252 61.32V61.72C98.5252 61.9333 98.5518 62.0933 98.6052 62.2C98.6585 62.28 98.7652 62.32 98.9252 62.32C99.5385 62.32 100.258 61.8267 101.085 60.84C101.938 59.8533 102.725 58.6 103.445 57.08C104.165 55.5333 104.672 53.9733 104.965 52.4L105.365 50.32C105.552 49.3333 106.045 48.5333 106.845 47.92C107.645 47.28 108.525 46.96 109.485 46.96C109.698 46.96 109.845 46.9867 109.925 47.04C110.032 47.0933 110.085 47.2 110.085 47.36C110.085 47.4667 110.018 47.68 109.885 48C109.752 48.32 109.605 48.92 109.445 49.8C109.205 50.7333 108.525 54.2133 107.405 60.24C107.272 60.8267 107.205 61.3733 107.205 61.88C107.205 62.3867 107.365 62.64 107.685 62.64C108.112 62.64 108.472 62.4133 108.765 61.96C109.058 61.48 109.485 60.6667 110.045 59.52C110.178 59.1467 110.338 58.96 110.525 58.96C110.765 58.96 110.885 59.1867 110.885 59.64C110.885 60.52 110.592 61.4933 110.005 62.56C109.445 63.6267 108.712 64.5333 107.805 65.28C106.898 66.0267 105.992 66.4 105.085 66.4C103.832 66.4 103.205 65.6133 103.205 64.04C103.205 63.2933 103.338 62.2133 103.605 60.8L103.525 60.76C102.485 62.3333 101.338 63.6667 100.085 64.76C98.8318 65.8533 97.6452 66.4 96.5252 66.4ZM114.516 66.4C114.089 66.4 113.876 66.2667 113.876 66C113.876 65.8667 113.942 65.6 114.076 65.2C114.369 64.3467 114.556 63.6533 114.636 63.12C114.849 62.1067 115.142 60.5467 115.516 58.44C115.916 56.3333 116.209 54.52 116.396 53C116.529 52.0667 116.596 51.4933 116.596 51.28C116.596 50.9333 116.489 50.76 116.276 50.76C115.716 50.76 114.996 51.5733 114.116 53.2C114.009 53.4133 113.889 53.6133 113.756 53.8C113.622 53.96 113.489 54.04 113.356 54.04C113.089 54.04 112.956 53.8133 112.956 53.36C112.956 52.64 113.262 51.7733 113.876 50.76C114.516 49.72 115.289 48.8267 116.196 48.08C117.129 47.3333 118.022 46.96 118.876 46.96C119.409 46.96 119.836 47.1467 120.156 47.52C120.476 47.8933 120.636 48.48 120.636 49.28C120.636 50.32 120.529 51.5067 120.316 52.84H120.356C121.342 51.08 122.409 49.6667 123.556 48.6C124.702 47.5067 125.796 46.96 126.836 46.96C128.196 46.96 128.876 47.8933 128.876 49.76C128.876 50.24 128.809 50.9067 128.676 51.76L128.636 52H128.676C129.716 50.4267 130.756 49.2 131.796 48.32C132.836 47.4133 133.836 46.96 134.796 46.96C136.156 46.96 136.836 47.92 136.836 49.84C136.836 50.64 136.716 51.64 136.476 52.84C136.022 55.1333 135.756 56.4667 135.676 56.84C135.516 57.6933 135.329 58.6933 135.116 59.84C134.902 60.96 134.796 61.6267 134.796 61.84C134.796 62.3733 134.969 62.64 135.316 62.64C135.716 62.64 136.089 62.3733 136.436 61.84C136.782 61.3067 137.156 60.5333 137.556 59.52C137.716 59.1467 137.902 58.96 138.116 58.96C138.249 58.96 138.342 59.0533 138.396 59.24C138.476 59.4267 138.502 59.6667 138.476 59.96C138.369 60.92 138.009 61.9067 137.396 62.92C136.809 63.9067 136.089 64.7333 135.236 65.4C134.382 66.0667 133.529 66.4 132.676 66.4C131.342 66.4 130.676 65.52 130.676 63.76C130.676 62.6667 130.996 60.5467 131.636 57.4C131.849 56.36 132.036 55.3333 132.196 54.32C132.382 53.28 132.489 52.44 132.516 51.8V51.56C132.516 51.08 132.369 50.84 132.076 50.84C131.702 50.84 131.222 51.2 130.636 51.92C130.076 52.6133 129.502 53.5333 128.916 54.68C128.356 55.8267 127.889 57 127.516 58.2L126.276 64.72C126.196 65.12 125.729 65.5067 124.876 65.88C124.022 66.2267 123.289 66.4 122.676 66.4C122.436 66.4 122.289 66.3467 122.236 66.24C122.182 66.16 122.182 66 122.236 65.76C122.262 65.6533 122.649 63.64 123.396 59.72C124.169 55.8 124.596 53.16 124.676 51.8V51.48C124.676 51.0533 124.542 50.84 124.276 50.84C123.822 50.84 123.249 51.3067 122.556 52.24C121.862 53.1733 121.209 54.3467 120.596 55.76C119.982 57.1733 119.542 58.5467 119.276 59.88L118.636 63.12C118.476 63.92 117.956 64.6667 117.076 65.36C116.222 66.0533 115.369 66.4 114.516 66.4Z" fill="white"/>
</g>
<defs>
<filter id="filter0_dddd_9_44" x="0.639221" y="30.48" width="138.877" height="55.48" filterUnits="userSpaceOnUse" color-interpolation-filters="sRGB">
<feFlood flood-opacity="0" result="BackgroundImageFix"/>
<feColorMatrix in="SourceAlpha" type="matrix" values="0 0 0 0 0 0 0 0 0 0 0 0 0 0 0 0 0 0 127 0" result="hardAlpha"/>
<feOffset dy="1"/>
<feGaussianBlur stdDeviation="0.5"/>
<feColorMatrix type="matrix" values="0 0 0 0 0 0 0 0 0 0 0 0 0 0 0 0 0 0 0.85 0"/>
<feBlend mode="normal" in2="BackgroundImageFix" result="effect1_dropShadow_9_44"/>
<feColorMatrix in="SourceAlpha" type="matrix" values="0 0 0 0 0 0 0 0 0 0 0 0 0 0 0 0 0 0 127 0" result="hardAlpha"/>
<feOffset dy="1"/>
<feGaussianBlur stdDeviation="0.5"/>
<feColorMatrix type="matrix" values="0 0 0 0 0 0 0 0 0 0 0 0 0 0 0 0 0 0 0.5 0"/>
<feBlend mode="normal" in2="effect1_dropShadow_9_44" result="effect2_dropShadow_9_44"/>
<feColorMatrix in="SourceAlpha" type="matrix" values="0 0 0 0 0 0 0 0 0 0 0 0 0 0 0 0 0 0 127 0" result="hardAlpha"/>
<feOffset dy="2"/>
<feGaussianBlur stdDeviation="0.5"/>
<feColorMatrix type="matrix" values="0 0 0 0 0 0 0 0 0 0 0 0 0 0 0 0 0 0 0.15 0"/>
<feBlend mode="normal" in2="effect2_dropShadow_9_44" result="effect3_dropShadow_9_44"/>
<feColorMatrix in="SourceAlpha" type="matrix" values="0 0 0 0 0 0 0 0 0 0 0 0 0 0 0 0 0 0 127 0" result="hardAlpha"/>
<feOffset dy="3"/>
<feGaussianBlur stdDeviation="0.5"/>
<feColorMatrix type="matrix" values="0 0 0 0 0 0 0 0 0 0 0 0 0 0 0 0 0 0 0.02 0"/>
<feBlend mode="normal" in2="effect3_dropShadow_9_44" result="effect4_dropShadow_9_44"/>
<feBlend mode="normal" in="SourceGraphic" in2="effect4_dropShadow_9_44" result="shape"/>
</filter>
</defs>
</svg>
