<svg width="146" height="90" viewBox="0 0 146 90" fill="none" xmlns="http://www.w3.org/2000/svg">
<path d="M69.8774 47.2427L66.5575 42.5C65.7242 36.1667 66.5575 18.8 76.5575 0C78.0576 0 94.5576 40.5 81.0576 74C79.5576 75.5 78.0576 73 77.0576 72.5C76.0576 72 90.0574 58 76.5575 8C73.6608 18.1387 68.4332 39.6522 69.8774 47.2427Z" fill="#FFFEFE" fill-opacity="0.8"/>
<path d="M53.0834 61.5369L47.4731 60.109C42.7092 55.8533 32.0094 42.149 27.3208 21.3775C28.4576 20.3987 67.3868 40.3239 79.0145 74.5189C78.8565 76.6343 76.0886 75.7185 75.0046 75.9921C73.9205 76.2657 75.3949 56.5218 32.5406 27.4399C36.9608 37.0131 47.0364 56.7271 53.0834 61.5369Z" fill="#FFFEFE" fill-opacity="0.8"/>
<path d="M88.2663 52.7512L88.9211 46.9992C92.4923 41.7027 104.621 29.2452 124.566 21.7862C125.69 22.78 111.221 64.0494 78.9164 80.2017C76.7991 80.3317 77.3315 77.4653 76.9136 76.4283C76.4957 75.3913 96.2574 74.1777 119.266 27.7791C110.38 33.4553 92.2127 46.1083 88.2663 52.7512Z" fill="#FFFEFE" fill-opacity="0.8"/>
<path d="M56.4427 80.9536L52.2272 82.9191C47.1529 82.6439 33.7192 79.3773 20.5792 68.5125C20.8104 67.3041 54.9815 60.0652 79.0617 75.9462C80.0019 77.3787 77.8183 78.2133 77.2737 78.9442C76.7291 79.675 67.9541 66.3055 26.8266 69.708C34.2977 73.5566 50.2924 80.9826 56.4427 80.9536Z" fill="#FFFEFE" fill-opacity="0.8"/>
<path d="M97.9848 69.4249L101.236 66.3333C105.983 64.9819 119.353 63.6819 134.853 69.293C135.022 70.4502 105.925 87.7096 78.7927 81.0431C77.4767 80.0538 79.2185 78.6169 79.4878 77.7896C79.7571 76.9622 92.0398 86.1958 128.738 70.1879C120.66 69.0876 103.624 67.4616 97.9848 69.4249Z" fill="#FFFEFE" fill-opacity="0.8"/>
<g filter="url(#filter0_d_9_44)">
<path d="M34.4792 58.96C34.7192 58.96 34.8392 59.1467 34.8392 59.52C34.8392 59.7067 34.8259 59.8533 34.7992 59.96C34.7192 60.8667 34.3859 61.8267 33.7992 62.84C33.2126 63.8533 32.4926 64.7067 31.6392 65.4C30.8126 66.0667 29.9859 66.4 29.1592 66.4C27.7459 66.4 27.0392 65.3867 27.0392 63.36C27.0392 62.8533 27.1059 62.1733 27.2392 61.32L29.5592 46.64C30.1459 42.88 30.7859 40.0133 31.4792 38.04C32.1992 36.04 33.0259 34.48 33.9592 33.36C32.0926 33.4133 30.5459 33.6 29.3192 33.92C28.0926 34.2133 27.0659 34.8267 26.2392 35.76C25.4126 36.6933 24.7859 37.9467 24.3592 39.52C23.9592 41.0667 23.5459 43.4267 23.1192 46.6L22.9992 47.36H24.6392C25.4392 47.36 26.0659 47.2667 26.5192 47.08C26.9726 46.8933 27.2526 46.8 27.3592 46.8C27.6259 46.8 27.7592 46.9333 27.7592 47.2C27.7592 47.4133 27.7059 47.6667 27.5992 47.96C27.3326 48.6267 26.8526 49.24 26.1592 49.8C25.4926 50.36 24.7992 50.64 24.0792 50.64H22.5192L20.3592 64.8C19.4792 70.6933 18.0392 75.0267 16.0392 77.8C14.0659 80.5733 11.4259 81.96 8.11922 81.96C7.37255 81.96 6.85255 81.88 6.55922 81.72C6.23922 81.5867 5.87922 81.2933 5.47922 80.84C4.91922 80.12 4.63922 79.5733 4.63922 79.2C4.63922 78.9333 4.81255 78.8 5.15922 78.8C5.37255 78.8 5.75922 78.88 6.31922 79.04C7.33255 79.3333 8.21255 79.48 8.95922 79.48C10.2926 79.48 11.3726 79.2133 12.1992 78.68C13.0259 78.1467 13.6926 77.2133 14.1992 75.88C14.7326 74.5467 15.1859 72.6133 15.5592 70.08L18.4792 50.64H16.5992C15.9859 50.64 15.4659 50.7333 15.0392 50.92C14.6126 51.1067 14.3459 51.2 14.2392 51.2C13.9992 51.2 13.8792 51.08 13.8792 50.84C13.8792 50.5733 13.9459 50.3067 14.0792 50.04C14.3992 49.2933 14.8792 48.6667 15.5192 48.16C16.1859 47.6267 16.8792 47.36 17.5992 47.36H18.9992L19.0792 46.64C19.5859 43.2 20.2126 40.4933 20.9592 38.52C21.7326 36.52 22.7592 34.9467 24.0392 33.8C25.4259 32.6267 26.9459 31.8667 28.5992 31.52C30.2526 31.1733 32.1192 30.9733 34.1992 30.92L35.1192 30.88C35.9192 30.8533 36.4259 30.7867 36.6392 30.68C36.8526 30.5467 37.0259 30.48 37.1592 30.48C37.4526 30.48 37.5992 30.6267 37.5992 30.92C37.5992 31.2667 37.4659 31.68 37.1992 32.16C36.6392 33.2 36.2259 34.0667 35.9592 34.76C35.6926 35.4267 35.4126 36.4 35.1192 37.68C34.8526 38.96 34.5059 40.8933 34.0792 43.48L31.2392 61.12C31.1859 61.4933 31.1592 61.7333 31.1592 61.84C31.1592 62.3733 31.3326 62.64 31.6792 62.64C32.0526 62.64 32.3992 62.3867 32.7192 61.88C33.0659 61.3733 33.4792 60.5867 33.9592 59.52C34.0926 59.1467 34.2659 58.96 34.4792 58.96ZM40.9192 66.4C39.6659 66.4 38.6792 65.9467 37.9592 65.04C37.2392 64.1067 36.8792 62.7733 36.8792 61.04C36.8792 58.88 37.4126 56.7067 38.4792 54.52C39.5726 52.3333 40.9326 50.5333 42.5592 49.12C44.2126 47.68 45.8126 46.96 47.3592 46.96C48.6126 46.96 49.5859 47.4267 50.2792 48.36C50.9726 49.2933 51.3192 50.6 51.3192 52.28C51.3192 54.3333 50.7992 56.4667 49.7592 58.68C48.7459 60.8933 47.4259 62.7333 45.7992 64.2C44.1992 65.6667 42.5726 66.4 40.9192 66.4ZM43.0792 62.92C43.8259 62.92 44.5059 62.5333 45.1192 61.76C45.7326 60.96 46.2126 59.8933 46.5592 58.56C46.9059 57.2267 47.0792 55.7733 47.0792 54.2C47.0792 52.8667 46.9326 51.9067 46.6392 51.32C46.3459 50.7333 45.8926 50.44 45.2792 50.44C44.5592 50.44 43.8792 50.8133 43.2392 51.56C42.6259 52.28 42.1192 53.28 41.7192 54.56C41.3459 55.84 41.1592 57.2667 41.1592 58.84C41.1592 61.56 41.7992 62.92 43.0792 62.92ZM54.587 66.4C54.1337 66.4 53.907 66.24 53.907 65.92C53.907 65.7867 54.0004 65.4933 54.187 65.04C54.4004 64.56 54.6004 63.8267 54.787 62.84L55.467 59C56.187 54.8933 56.5604 52.4933 56.587 51.8V51.44C56.587 50.9867 56.467 50.76 56.227 50.76C55.7204 50.76 55.027 51.5733 54.147 53.2C54.0404 53.4133 53.9204 53.6133 53.787 53.8C53.6537 53.96 53.5204 54.04 53.387 54.04C53.1204 54.04 52.987 53.8133 52.987 53.36C52.987 52.6667 53.2937 51.8133 53.907 50.8C54.547 49.76 55.3204 48.8667 56.227 48.12C57.1604 47.3467 58.0537 46.96 58.907 46.96C60.0537 46.96 60.627 47.72 60.627 49.24C60.627 49.56 60.5204 50.68 60.307 52.6H60.347C61.467 50.6267 62.5204 49.2 63.507 48.32C64.5204 47.4133 65.5337 46.96 66.547 46.96C67.2404 46.96 67.8004 47.16 68.227 47.56C68.6537 47.96 68.867 48.5333 68.867 49.28C68.867 50 68.6937 50.7067 68.347 51.4C68.027 52.0933 67.627 52.6667 67.147 53.12C66.667 53.5467 66.2537 53.76 65.907 53.76C65.6937 53.76 65.627 53.6267 65.707 53.36C65.787 52.9867 65.827 52.64 65.827 52.32C65.827 51.6267 65.5204 51.28 64.907 51.28C63.8937 51.28 62.8804 51.9733 61.867 53.36C60.8804 54.7467 60.107 56.7467 59.547 59.36C59.147 61.0133 58.8804 62.3067 58.747 63.24C58.6137 63.9867 58.0804 64.7067 57.147 65.4C56.2404 66.0667 55.387 66.4 54.587 66.4ZM72.0614 66.4C70.6747 66.4 69.5814 65.9333 68.7814 65C68.0081 64.04 67.6214 62.7067 67.6214 61C67.6214 59 68.1281 56.9067 69.1414 54.72C70.1814 52.5067 71.4881 50.6667 73.0614 49.2C74.6614 47.7067 76.2614 46.96 77.8614 46.96C78.7414 46.96 79.4347 47.2133 79.9414 47.72C80.4747 48.2267 80.7414 48.96 80.7414 49.92C80.7414 51.12 80.3547 52.36 79.5814 53.64C78.8081 54.8933 77.7414 56.0667 76.3814 57.16C75.0481 58.2267 73.5414 59.0933 71.8614 59.76C71.9414 61.6 72.7547 62.52 74.3014 62.52C75.1547 62.52 75.9547 62.2533 76.7014 61.72C77.4747 61.1867 78.1547 60.4667 78.7414 59.56C78.8747 59.32 78.9947 59.1467 79.1014 59.04C79.2081 58.9067 79.3147 58.84 79.4214 58.84C79.5814 58.84 79.6881 58.8933 79.7414 59C79.7947 59.1067 79.8214 59.2933 79.8214 59.56C79.8214 60.4133 79.4347 61.3867 78.6614 62.48C77.9147 63.5733 76.9414 64.5067 75.7414 65.28C74.5414 66.0267 73.3147 66.4 72.0614 66.4ZM72.8614 56.48C73.4481 56.48 74.0481 56.28 74.6614 55.88C75.2747 55.4533 75.7814 54.9067 76.1814 54.24C76.5814 53.5733 76.7814 52.8533 76.7814 52.08C76.7814 51.12 76.3947 50.64 75.6214 50.64C74.7947 50.64 74.0481 51.16 73.3814 52.2C72.7147 53.24 72.2881 54.6267 72.1014 56.36C72.2614 56.44 72.5147 56.48 72.8614 56.48ZM86.9936 66.4C86.1136 66.4 85.4603 66.12 85.0336 65.56C84.6069 65 84.3936 64.1067 84.3936 62.88C84.3936 62.1067 84.5003 61.08 84.7136 59.8L86.3536 50.44H83.1136C82.8203 50.44 82.6069 50.4133 82.4736 50.36C82.3669 50.28 82.3136 50.1733 82.3136 50.04C82.3136 49.8 82.4869 49.4667 82.8336 49.04C83.1803 48.6133 83.5669 48.2267 83.9936 47.88C84.4469 47.5333 84.8203 47.36 85.1136 47.36H86.9536L87.2736 45.28C87.4603 44.2933 88.0069 43.4133 88.9136 42.64C89.8469 41.8667 90.7536 41.48 91.6336 41.48C91.8469 41.48 92.0203 41.52 92.1536 41.6C92.2869 41.68 92.3536 41.8 92.3536 41.96C92.3536 42.0667 92.2203 42.36 91.9536 42.84C91.6869 43.2933 91.4869 43.9333 91.3536 44.76L90.9136 47.36H94.3136C94.6336 47.36 94.8469 47.3867 94.9536 47.44C95.0603 47.4667 95.1136 47.5467 95.1136 47.68C95.1136 47.9467 94.9269 48.3067 94.5536 48.76C94.1803 49.1867 93.7536 49.5733 93.2736 49.92C92.7936 50.2667 92.4336 50.44 92.1936 50.44H90.3936L88.7936 59.96C88.6069 60.8933 88.5136 61.6133 88.5136 62.12C88.5136 62.4933 88.5669 62.76 88.6736 62.92C88.8069 63.0533 88.9936 63.12 89.2336 63.12C90.1136 63.12 90.9403 62.4 91.7136 60.96C91.7936 60.7733 91.8736 60.64 91.9536 60.56C92.0336 60.4533 92.1269 60.4 92.2336 60.4C92.5003 60.4 92.6336 60.6267 92.6336 61.08C92.6336 61.7733 92.3669 62.5467 91.8336 63.4C91.3003 64.2267 90.5936 64.9333 89.7136 65.52C88.8603 66.1067 87.9536 66.4 86.9936 66.4ZM99.5252 66.4C98.1385 66.4 97.4452 65.3467 97.4452 63.24C97.4452 62.44 97.5652 61.32 97.8052 59.88L99.0452 52.56C99.1518 52.0267 99.2052 51.5733 99.2052 51.2C99.2052 50.8533 99.0852 50.68 98.8452 50.68C98.5785 50.68 98.2852 50.8667 97.9652 51.24C97.6718 51.5867 97.2585 52.24 96.7252 53.2C96.6185 53.4133 96.4985 53.6133 96.3652 53.8C96.2318 53.96 96.0985 54.04 95.9652 54.04C95.6985 54.04 95.5652 53.8133 95.5652 53.36C95.5652 52.6667 95.8852 51.8133 96.5252 50.8C97.1652 49.76 97.9385 48.8667 98.8452 48.12C99.7785 47.3467 100.672 46.96 101.525 46.96C102.112 46.96 102.552 47.1467 102.845 47.52C103.165 47.8667 103.325 48.3733 103.325 49.04C103.325 49.2 103.298 49.4667 103.245 49.84L101.525 61.32V61.72C101.525 61.9333 101.552 62.0933 101.605 62.2C101.658 62.28 101.765 62.32 101.925 62.32C102.538 62.32 103.258 61.8267 104.085 60.84C104.938 59.8533 105.725 58.6 106.445 57.08C107.165 55.5333 107.672 53.9733 107.965 52.4L108.365 50.32C108.552 49.3333 109.045 48.5333 109.845 47.92C110.645 47.28 111.525 46.96 112.485 46.96C112.698 46.96 112.845 46.9867 112.925 47.04C113.032 47.0933 113.085 47.2 113.085 47.36C113.085 47.4667 113.018 47.68 112.885 48C112.752 48.32 112.605 48.92 112.445 49.8C112.205 50.7333 111.525 54.2133 110.405 60.24C110.272 60.8267 110.205 61.3733 110.205 61.88C110.205 62.3867 110.365 62.64 110.685 62.64C111.112 62.64 111.472 62.4133 111.765 61.96C112.058 61.48 112.485 60.6667 113.045 59.52C113.178 59.1467 113.338 58.96 113.525 58.96C113.765 58.96 113.885 59.1867 113.885 59.64C113.885 60.52 113.592 61.4933 113.005 62.56C112.445 63.6267 111.712 64.5333 110.805 65.28C109.898 66.0267 108.992 66.4 108.085 66.4C106.832 66.4 106.205 65.6133 106.205 64.04C106.205 63.2933 106.338 62.2133 106.605 60.8L106.525 60.76C105.485 62.3333 104.338 63.6667 103.085 64.76C101.832 65.8533 100.645 66.4 99.5252 66.4ZM117.516 66.4C117.089 66.4 116.876 66.2667 116.876 66C116.876 65.8667 116.942 65.6 117.076 65.2C117.369 64.3467 117.556 63.6533 117.636 63.12C117.849 62.1067 118.142 60.5467 118.516 58.44C118.916 56.3333 119.209 54.52 119.396 53C119.529 52.0667 119.596 51.4933 119.596 51.28C119.596 50.9333 119.489 50.76 119.276 50.76C118.716 50.76 117.996 51.5733 117.116 53.2C117.009 53.4133 116.889 53.6133 116.756 53.8C116.622 53.96 116.489 54.04 116.356 54.04C116.089 54.04 115.956 53.8133 115.956 53.36C115.956 52.64 116.262 51.7733 116.876 50.76C117.516 49.72 118.289 48.8267 119.196 48.08C120.129 47.3333 121.022 46.96 121.876 46.96C122.409 46.96 122.836 47.1467 123.156 47.52C123.476 47.8933 123.636 48.48 123.636 49.28C123.636 50.32 123.529 51.5067 123.316 52.84H123.356C124.342 51.08 125.409 49.6667 126.556 48.6C127.702 47.5067 128.796 46.96 129.836 46.96C131.196 46.96 131.876 47.8933 131.876 49.76C131.876 50.24 131.809 50.9067 131.676 51.76L131.636 52H131.676C132.716 50.4267 133.756 49.2 134.796 48.32C135.836 47.4133 136.836 46.96 137.796 46.96C139.156 46.96 139.836 47.92 139.836 49.84C139.836 50.64 139.716 51.64 139.476 52.84C139.022 55.1333 138.756 56.4667 138.676 56.84C138.516 57.6933 138.329 58.6933 138.116 59.84C137.902 60.96 137.796 61.6267 137.796 61.84C137.796 62.3733 137.969 62.64 138.316 62.64C138.716 62.64 139.089 62.3733 139.436 61.84C139.782 61.3067 140.156 60.5333 140.556 59.52C140.716 59.1467 140.902 58.96 141.116 58.96C141.249 58.96 141.342 59.0533 141.396 59.24C141.476 59.4267 141.502 59.6667 141.476 59.96C141.369 60.92 141.009 61.9067 140.396 62.92C139.809 63.9067 139.089 64.7333 138.236 65.4C137.382 66.0667 136.529 66.4 135.676 66.4C134.342 66.4 133.676 65.52 133.676 63.76C133.676 62.6667 133.996 60.5467 134.636 57.4C134.849 56.36 135.036 55.3333 135.196 54.32C135.382 53.28 135.489 52.44 135.516 51.8V51.56C135.516 51.08 135.369 50.84 135.076 50.84C134.702 50.84 134.222 51.2 133.636 51.92C133.076 52.6133 132.502 53.5333 131.916 54.68C131.356 55.8267 130.889 57 130.516 58.2L129.276 64.72C129.196 65.12 128.729 65.5067 127.876 65.88C127.022 66.2267 126.289 66.4 125.676 66.4C125.436 66.4 125.289 66.3467 125.236 66.24C125.182 66.16 125.182 66 125.236 65.76C125.262 65.6533 125.649 63.64 126.396 59.72C127.169 55.8 127.596 53.16 127.676 51.8V51.48C127.676 51.0533 127.542 50.84 127.276 50.84C126.822 50.84 126.249 51.3067 125.556 52.24C124.862 53.1733 124.209 54.3467 123.596 55.76C122.982 57.1733 122.542 58.5467 122.276 59.88L121.636 63.12C121.476 63.92 120.956 64.6667 120.076 65.36C119.222 66.0533 118.369 66.4 117.516 66.4Z" fill="white"/>
</g>
<defs>
<filter id="filter0_d_9_44" x="0.639221" y="30.48" width="144.877" height="59.48" filterUnits="userSpaceOnUse" color-interpolation-filters="sRGB">
<feFlood flood-opacity="0" result="BackgroundImageFix"/>
<feColorMatrix in="SourceAlpha" type="matrix" values="0 0 0 0 0 0 0 0 0 0 0 0 0 0 0 0 0 0 127 0" result="hardAlpha"/>
<feOffset dy="4"/>
<feGaussianBlur stdDeviation="2"/>
<feComposite in2="hardAlpha" operator="out"/>
<feColorMatrix type="matrix" values="0 0 0 0 0 0 0 0 0 0 0 0 0 0 0 0 0 0 0.45 0"/>
<feBlend mode="normal" in2="BackgroundImageFix" result="effect1_dropShadow_9_44"/>
<feBlend mode="normal" in="SourceGraphic" in2="effect1_dropShadow_9_44" result="shape"/>
</filter>
</defs>
</svg>
