<svg width="579" height="440" viewBox="0 0 579 440" fill="none" xmlns="http://www.w3.org/2000/svg">
<path d="M251.8 236.498L235.369 212.756C231.245 181.051 235.369 94.1134 284.86 0C292.285 0 373.946 202.744 307.132 370.446C299.708 377.955 292.285 365.44 287.336 362.937C282.386 360.434 351.673 290.35 284.86 40.0482C270.524 90.8028 244.652 198.5 251.8 236.498Z" fill="#809C8B" fill-opacity="0.06"/>
<path d="M168.684 308.056L140.918 300.908C117.341 279.603 64.3852 210.999 41.1808 107.016C46.807 102.116 239.473 201.863 297.02 373.044C296.239 383.634 282.54 379.049 277.175 380.419C271.81 381.788 279.107 282.95 67.0146 137.365C88.8904 185.289 138.756 283.978 168.684 308.056Z" fill="#809C8B" fill-opacity="0.06"/>
<path d="M342.809 264.074L346.05 235.279C363.724 208.765 423.75 146.402 522.461 109.063C528.023 114.037 456.416 320.633 296.535 401.492C286.056 402.143 288.691 387.794 286.623 382.602C284.555 377.411 382.358 371.336 496.233 139.063C452.254 167.478 362.34 230.82 342.809 264.074Z" fill="#809C8B" fill-opacity="0.06"/>
<path d="M185.309 405.256L164.446 415.095C139.333 413.718 72.8472 397.365 7.81544 342.976C8.95988 336.926 178.078 300.688 297.254 380.189C301.907 387.36 291.1 391.538 288.405 395.197C285.71 398.855 242.281 331.927 38.735 348.96C75.7104 368.226 154.871 405.401 185.309 405.256Z" fill="#809C8B" fill-opacity="0.06"/>
<path d="M390.907 347.543L406.995 332.066C430.491 325.301 496.66 318.794 573.374 346.883C574.212 352.676 430.207 439.077 295.923 405.704C289.41 400.752 298.03 393.559 299.363 389.417C300.696 385.275 361.484 431.499 543.107 351.363C503.131 345.854 418.818 337.715 390.907 347.543Z" fill="#809C8B" fill-opacity="0.06"/>
</svg>
